<svg id="Слой_1" data-name="Слой 1" xmlns="http://www.w3.org/2000/svg" xmlns:xlink="http://www.w3.org/1999/xlink" viewBox="0 0 633 456.76"><defs><style>.cls-1{fill:url(#Безымянный_градиент_23);}.cls-2{fill:url(#Безымянный_градиент_2);}.cls-3{fill:#b3efff;}.cls-4{fill:url(#Безымянный_градиент_3);}.cls-5{fill:url(#Безымянный_градиент_25);}.cls-24,.cls-32,.cls-33,.cls-6,.cls-9{isolation:isolate;}.cls-32,.cls-6{opacity:0.6;}.cls-6{fill:url(#Безымянный_градиент_25-2);}.cls-7{fill:#125cae;}.cls-8,.cls-9{fill:#fff;}.cls-9{opacity:0.4;}.cls-10{fill:url(#Безымянный_градиент_7);}.cls-11{fill:url(#Безымянный_градиент_7-2);}.cls-12{fill:url(#Безымянный_градиент_8);}.cls-13{fill:url(#Безымянный_градиент_9);}.cls-14{fill:url(#Безымянный_градиент_27);}.cls-15{fill:url(#Безымянный_градиент_17);}.cls-16{fill:url(#Безымянный_градиент_17-2);}.cls-17{fill:url(#Безымянный_градиент_17-3);}.cls-18{fill:url(#Безымянный_градиент_14);}.cls-19{fill:url(#Безымянный_градиент_25-3);}.cls-20{fill:url(#Безымянный_градиент_16);}.cls-21{fill:url(#Безымянный_градиент_17-4);}.cls-22{fill:url(#Безымянный_градиент_25-4);}.cls-23{fill:url(#Безымянный_градиент_19);}.cls-24{opacity:0.5;fill:url(#Безымянный_градиент_22);}.cls-25{fill:url(#Безымянный_градиент_25-5);}.cls-26{fill:url(#Безымянный_градиент_22-2);}.cls-27{fill:url(#Безымянный_градиент_23-2);}.cls-28{fill:url(#Безымянный_градиент_27-2);}.cls-29{fill:url(#Безымянный_градиент_25-6);}.cls-30{fill:url(#Безымянный_градиент_27-3);}.cls-31{fill:url(#Безымянный_градиент_27-4);}.cls-32{fill:url(#Безымянный_градиент_29);}.cls-33{opacity:0.3;fill:url(#Безымянный_градиент_29-2);}</style><linearGradient id="Безымянный_градиент_23" x1="276.83" y1="696.59" x2="563.7" y2="285" gradientTransform="matrix(1, 0, 0, -1, 262.06, 856.36)" gradientUnits="userSpaceOnUse"><stop offset="0" stop-color="#270036"/><stop offset="0.59" stop-color="#4f008b"/><stop offset="1" stop-color="#4c24b1"/></linearGradient><radialGradient id="Безымянный_градиент_2" cx="1.55" cy="768.6" r="1" gradientTransform="matrix(169.93, 0, 0, -169.93, 464.4, 130973.87)" gradientUnits="userSpaceOnUse"><stop offset="0" stop-color="#3e82bf"/><stop offset="1" stop-color="#3e82bf" stop-opacity="0"/></radialGradient><linearGradient id="Безымянный_градиент_3" x1="573.62" y1="680.55" x2="557.38" y2="599.78" gradientTransform="matrix(1, 0, 0, -1, 262.06, 856.36)" gradientUnits="userSpaceOnUse"><stop offset="0" stop-color="#88cfda"/><stop offset="0.01" stop-color="#89cfd9"/><stop offset="0.48" stop-color="#c8d9bb"/><stop offset="0.82" stop-color="#f0dfa7"/><stop offset="1" stop-color="#ffe1a0"/></linearGradient><linearGradient id="Безымянный_градиент_25" x1="294.84" y1="657.78" x2="315.49" y2="657.78" gradientTransform="matrix(1, 0, 0, -1, 262.06, 856.36)" gradientUnits="userSpaceOnUse"><stop offset="0" stop-color="#7633ff"/><stop offset="0.16" stop-color="#7137ff"/><stop offset="0.35" stop-color="#6243ff"/><stop offset="0.57" stop-color="#4957ff"/><stop offset="0.79" stop-color="#2672ff"/><stop offset="1" stop-color="#0090ff"/></linearGradient><linearGradient id="Безымянный_градиент_25-2" x1="131.6" y1="553.65" x2="147.09" y2="553.65" xlink:href="#Безымянный_градиент_25"/><linearGradient id="Безымянный_градиент_7" x1="651.8" y1="567.14" x2="339.91" y2="378.59" gradientTransform="matrix(1, 0, 0, -1, 262.06, 856.36)" gradientUnits="userSpaceOnUse"><stop offset="0" stop-color="#1dacff"/><stop offset="0.14" stop-color="#1ca9fb"/><stop offset="0.27" stop-color="#1b9fef"/><stop offset="0.41" stop-color="#188eda"/><stop offset="0.56" stop-color="#1476bd"/><stop offset="0.7" stop-color="#0f5898"/><stop offset="0.84" stop-color="#08326b"/><stop offset="0.98" stop-color="#010737"/><stop offset="1" stop-color="#00002e"/></linearGradient><linearGradient id="Безымянный_градиент_7-2" x1="618.84" y1="564.82" x2="440.22" y2="457.08" xlink:href="#Безымянный_градиент_7"/><linearGradient id="Безымянный_градиент_8" x1="94.03" y1="301.56" x2="261.56" y2="301.56" gradientTransform="matrix(1, 0, 0, -1, 262.06, 856.36)" gradientUnits="userSpaceOnUse"><stop offset="0" stop-color="#88aeda"/><stop offset="0.04" stop-color="#8eadd4"/><stop offset="0.5" stop-color="#cba895"/><stop offset="0.83" stop-color="#f1a56d"/><stop offset="1" stop-color="#ffa45e"/></linearGradient><linearGradient id="Безымянный_градиент_9" x1="132.33" y1="308.14" x2="258.25" y2="308.14" gradientTransform="matrix(1, 0, 0, -1, 262.06, 856.36)" gradientUnits="userSpaceOnUse"><stop offset="0" stop-color="#88cfda"/><stop offset="0.04" stop-color="#8ed0d4"/><stop offset="0.5" stop-color="#cbd995"/><stop offset="0.83" stop-color="#f1df6d"/><stop offset="1" stop-color="#ffe15e"/></linearGradient><linearGradient id="Безымянный_градиент_27" x1="385.93" y1="348.96" x2="235.21" y2="545.3" gradientTransform="matrix(1, 0, 0, -1, 262.06, 856.36)" gradientUnits="userSpaceOnUse"><stop offset="0" stop-color="#a1baff"/><stop offset="0.49" stop-color="#fff"/></linearGradient><linearGradient id="Безымянный_градиент_17" x1="478.13" y1="430.75" x2="449.07" y2="478.18" gradientTransform="matrix(1, 0, 0, -1, 262.06, 856.36)" gradientUnits="userSpaceOnUse"><stop offset="0" stop-color="#3d00ba"/><stop offset="0.74" stop-color="#ce00ff"/></linearGradient><linearGradient id="Безымянный_градиент_17-2" x1="270.01" y1="299.79" x2="366.16" y2="299.79" xlink:href="#Безымянный_градиент_17"/><linearGradient id="Безымянный_градиент_17-3" x1="291.87" y1="391.46" x2="234.22" y2="414.14" xlink:href="#Безымянный_градиент_17"/><linearGradient id="Безымянный_градиент_14" x1="282.71" y1="306.86" x2="243.02" y2="367.1" gradientTransform="matrix(1, 0, 0, -1, 262.06, 856.36)" gradientUnits="userSpaceOnUse"><stop offset="0" stop-color="#270036"/><stop offset="0.44" stop-color="#4f008b"/><stop offset="1" stop-color="#4c24b1"/></linearGradient><linearGradient id="Безымянный_градиент_25-3" x1="236.09" y1="356.27" x2="264.44" y2="306.66" xlink:href="#Безымянный_градиент_25"/><linearGradient id="Безымянный_градиент_16" x1="339.79" y1="395.41" x2="216.47" y2="329.5" gradientTransform="matrix(1, 0, 0, -1, 262.06, 856.36)" gradientUnits="userSpaceOnUse"><stop offset="0" stop-color="#7633ff"/><stop offset="0.13" stop-color="#6342ff"/><stop offset="0.53" stop-color="#2e6cff"/><stop offset="0.83" stop-color="#0d86ff"/><stop offset="1" stop-color="#0090ff"/></linearGradient><linearGradient id="Безымянный_градиент_17-4" x1="213.07" y1="355.08" x2="332.37" y2="355.08" xlink:href="#Безымянный_градиент_17"/><linearGradient id="Безымянный_градиент_25-4" x1="357.89" y1="568.65" x2="431.7" y2="568.65" xlink:href="#Безымянный_градиент_25"/><linearGradient id="Безымянный_градиент_19" x1="347.38" y1="450.7" x2="384.23" y2="570.71" gradientTransform="matrix(1, 0, 0, -1, 262.06, 856.36)" gradientUnits="userSpaceOnUse"><stop offset="0" stop-color="#7633ff"/><stop offset="0.11" stop-color="#6640ff"/><stop offset="0.52" stop-color="#2f6bff"/><stop offset="0.83" stop-color="#0d86ff"/><stop offset="1" stop-color="#0090ff"/></linearGradient><linearGradient id="Безымянный_градиент_22" x1="358.37" y1="511.78" x2="380.97" y2="511.78" gradientTransform="matrix(1, 0, 0, -1, 262.06, 856.36)" gradientUnits="userSpaceOnUse"><stop offset="0" stop-color="#70b"/><stop offset="1"/></linearGradient><linearGradient id="Безымянный_градиент_25-5" x1="354.48" y1="559.09" x2="376.07" y2="559.09" xlink:href="#Безымянный_градиент_25"/><linearGradient id="Безымянный_градиент_22-2" x1="356.7" y1="490.06" x2="377.97" y2="490.06" xlink:href="#Безымянный_градиент_22"/><linearGradient id="Безымянный_градиент_23-2" x1="316.54" y1="389.02" x2="343.01" y2="389.02" xlink:href="#Безымянный_градиент_23"/><linearGradient id="Безымянный_градиент_27-2" x1="368.28" y1="562.21" x2="396.95" y2="562.21" xlink:href="#Безымянный_градиент_27"/><linearGradient id="Безымянный_градиент_25-6" x1="358.36" y1="511.83" x2="432.77" y2="511.83" xlink:href="#Безымянный_градиент_25"/><linearGradient id="Безымянный_градиент_27-3" x1="434.31" y1="480.41" x2="462.91" y2="480.41" xlink:href="#Безымянный_градиент_27"/><linearGradient id="Безымянный_градиент_27-4" x1="431.37" y1="595.51" x2="455.8" y2="595.51" xlink:href="#Безымянный_градиент_27"/><linearGradient id="Безымянный_градиент_29" x1="596.26" y1="656.83" x2="703.17" y2="656.83" gradientTransform="matrix(1, 0, 0, -1, 262.06, 856.36)" gradientUnits="userSpaceOnUse"><stop offset="0" stop-color="#a1baff"/><stop offset="0.09" stop-color="#acc2ff"/><stop offset="0.5" stop-color="#d9e3ff"/><stop offset="0.82" stop-color="#f5f7ff"/><stop offset="1" stop-color="#fff"/></linearGradient><linearGradient id="Безымянный_градиент_29-2" x1="462.06" y1="636.1" x2="538.86" y2="636.1" xlink:href="#Безымянный_градиент_29"/></defs><path class="cls-1" d="M955.42,428c-132.21,115-37.13,204.3-351.88,180.88-147.35-11-220.34-123-237.24-225.32-20.95-126.88,59.22-216.95,279.93-216.95,99.56,0,189.38-30,252.1,10.4C985.74,233.39,1020.47,371.4,955.42,428Z" transform="translate(-356.08 -155.86)"/><path class="cls-2" d="M557.42,193.18H897.29V533H557.42Z" transform="translate(-356.08 -155.86)"/><path class="cls-3" d="M916.48,284a4.7,4.7,0,1,0-4.7-4.7A4.69,4.69,0,0,0,916.48,284Z" transform="translate(-356.08 -155.86)"/><path class="cls-3" d="M494.93,250.23a4.7,4.7,0,1,0-4.7-4.7A4.69,4.69,0,0,0,494.93,250.23Z" transform="translate(-356.08 -155.86)"/><path class="cls-4" d="M798.71,243.49a41.18,41.18,0,1,0,.15-58.24A41.17,41.17,0,0,0,798.71,243.49Z" transform="translate(-356.08 -155.86)"/><path class="cls-5" d="M567.22,208.92a10.33,10.33,0,1,0-10.33-10.33A10.34,10.34,0,0,0,567.22,208.92Z" transform="translate(-356.08 -155.86)"/><path class="cls-6" d="M401.4,310.46a7.75,7.75,0,1,0-7.75-7.75A7.75,7.75,0,0,0,401.4,310.46Z" transform="translate(-356.08 -155.86)"/><path class="cls-7" d="M701.47,208.92a4.7,4.7,0,1,0-4.69-4.7A4.7,4.7,0,0,0,701.47,208.92Z" transform="translate(-356.08 -155.86)"/><path class="cls-8" d="M632,201.6l1,2,2.21.32-1.6,1.56.38,2.2-2-1-2,1,.37-2.2-1.6-1.56,2.22-.32Z" transform="translate(-356.08 -155.86)"/><path class="cls-9" d="M432.39,252.59l1,2,2.22.32L434,256.48l.38,2.2-2-1-2,1,.37-2.2-1.59-1.56,2.21-.32Z" transform="translate(-356.08 -155.86)"/><path class="cls-8" d="M397.17,372.31l1,2,2.21.32-1.59,1.57.37,2.19-2-1-2,1,.38-2.19-1.6-1.57,2.21-.32ZM960,331.83l1,2,2.22.32-1.6,1.56.37,2.2-2-1-2,1,.38-2.2-1.6-1.56,2.21-.32ZM929,224.75l1,2,2.21.32-1.6,1.56.38,2.2-2-1-2,1,.38-2.2-1.6-1.56,2.21-.32Z" transform="translate(-356.08 -155.86)"/><path class="cls-10" d="M604.34,436,870.52,302,634.91,498.21" transform="translate(-356.08 -155.86)"/><path class="cls-11" d="M749,381.28,870.51,302l-146.6,74.09Z" transform="translate(-356.08 -155.86)"/><path class="cls-12" d="M498.22,578.2c-12.36,9.2-41.63,17.63-41.63,17.63s2.34-1.34,6.19-3.24a24.69,24.69,0,0,0,7-5.94A104,104,0,0,1,451,595.14a220.2,220.2,0,0,1-25.53,6.37,84.66,84.66,0,0,0,8.17-4.84c5.21-3.41,14.17-9.34,14.17-9.34s-22.35,12.25-56.52,14.6c-13.37.92-35.24,5.71-35.24,5.71s10.57-9.12,15.59-14.37c8-8.34,17.27-21.75,24.55-30.22,10.84-12.62,33.09-34.8,33.09-34.8l-4.47,2c-4.48,2-9.89,4.17-9.89,4.17s22.38-21.34,39-27.77c18.77-7.24,43.81-3.94,43.81-3.94s2.2,10.71,10.39,24.58c8.47,14.32,15.44,20.16,15.44,20.16S517.17,564.13,498.22,578.2Z" transform="translate(-356.08 -155.86)"/><path class="cls-13" d="M501.21,565.82c-9.29,6.91-31.29,13.25-31.29,13.25s1.76-1,4.65-2.44a18.37,18.37,0,0,0,5.29-4.46,77.82,77.82,0,0,1-14.12,6.37,167.78,167.78,0,0,1-19.18,4.8,65.42,65.42,0,0,0,6.14-3.65c3.91-2.55,10.65-7,10.65-7s-16.8,9.2-42.48,11c-10.05.69-26.48,4.28-26.48,4.28s7.94-6.85,11.71-10.79c6-6.27,13-16.34,18.46-22.72,8.15-9.48,24.87-26.15,24.87-26.15l-3.37,1.51c-3.36,1.5-7.43,3.12-7.43,3.12s16.82-16,29.33-20.86c14.1-5.44,32.93-3,32.93-3s1.65,8.05,7.81,18.46c6.36,10.77,11.6,15.15,11.6,15.15S515.44,555.24,501.21,565.82Z" transform="translate(-356.08 -155.86)"/><path class="cls-14" d="M515.29,478.6c1.41-2.13,40.87-44.41,88.83-69.22s69.69-26.93,69.69-26.93,12.05,8.5,24.09,30.71,15.6,31.18,14.65,34-47.72,53.4-99,74.42-57.17,22.21-57.17,22.21-6.38-.7-13.7-11.8-24.34-38.75-26.23-44.9S515.29,478.6,515.29,478.6Z" transform="translate(-356.08 -155.86)"/><path class="cls-15" d="M751.3,379.85c-2.84-4-6.61-4.73-29.53-4.49S675,383.15,675,383.15l.28.45c3.55,3,13.09,11.95,22.64,29.56,9.07,16.72,13.32,25.94,14.47,30.68l.89,1.45,4-3.78c4-3.79,20.55-28.12,26.69-39.46S754.14,383.86,751.3,379.85Z" transform="translate(-356.08 -155.86)"/><path class="cls-16" d="M558.29,543.1l-26.23,55.29a367.39,367.39,0,0,0,55.76-30.48c30-19.84,32.36-22.92,32.36-22.92l8-30.24S580,537,558.29,543.1Z" transform="translate(-356.08 -155.86)"/><path class="cls-17" d="M574.11,427.81l-27.64-5.67s-24.33,10.16-44.65,23.39-40.17,28.11-40.17,28.11l55.52,2.84S556.4,436.31,574.11,427.81Z" transform="translate(-356.08 -155.86)"/><path class="cls-18" d="M542.69,532c-7.33-11.1-24.34-38.75-26.23-44.89a33.46,33.46,0,0,1-1-4.2l-14.32,10.57s-.95,10.39,11.81,29.77,19.37,26,22.44,25.75,16.3-7.09,16.3-7.09l-.27-.45A34.24,34.24,0,0,1,542.69,532Z" transform="translate(-356.08 -155.86)"/><path class="cls-19" d="M502.06,499.63l-4.26,3.07s-.46,6.61,9.22,22.68,15.59,22,18.19,22.21,4.49-2.13,4.49-2.13S507,520.18,502.06,499.63Z" transform="translate(-356.08 -155.86)"/><path class="cls-20" d="M591.36,464.66,570.1,472s-33,18.29-43.71,24.81c-13.47,8.18-52.92,34.26-52.92,34.26l1.65,3.54,97.81-58.35,21.5-8.27Z" transform="translate(-356.08 -155.86)"/><path class="cls-21" d="M475.12,534.6,529,509.79S549.68,498,556.4,493.72c9.71-6.13,38-25.75,38-25.75L572,476.47Z" transform="translate(-356.08 -155.86)"/><path d="M688.23,264.56l5.19-2.13s1.31.6,2.6,3.54a23,23,0,0,1,1.89,6.38l-5.19,2.84S690.11,268.1,688.23,264.56Z" transform="translate(-356.08 -155.86)"/><path class="cls-22" d="M640.5,311.34l53.15-32.13a20.61,20.61,0,0,0-1.25-9.45c-1.9-4.41-4.1-5.67-4.1-5.67L620,295" transform="translate(-356.08 -155.86)"/><path class="cls-23" d="M616.48,294.88s-10.24,11.25-12.6,23.54-2.13,32.83-2.84,39.69-4.25,19.62-6.38,25.52-2.84,14.18-2.84,14.18a158,158,0,0,0,31.42-.24c16.54-1.89,22.45-4,22.45-4s-1-19.38-2.68-25.68-2.21-8.5-2.21-8.5.63-2.36,2.21-6.61,9.44-19.38,8.19-25.2-4.41-14.33-7.09-17.17-3.79-3.3-3.79-3.3-6.14-8.83-10.39-12.92a13,13,0,0,0-9.45-3.63Z" transform="translate(-356.08 -155.86)"/><path class="cls-24" d="M620.42,332.46s2.76,8,7.33,13.38,13.94,10.87,13.94,10.87l1.33-3.94-22-20.31" transform="translate(-356.08 -155.86)"/><path class="cls-25" d="M638.13,304a88.56,88.56,0,0,0-8.18-9.84,13,13,0,0,0-9.45-3.63l-4,4.28c2.85,1.74,9.87,3,14.36,5.65A56.59,56.59,0,0,0,638.13,304Z" transform="translate(-356.08 -155.86)"/><path class="cls-26" d="M619.24,366a66.69,66.69,0,0,0,12.28-1.89c7.25-1.74,8.51-2.84,8.51-2.84l-1.58,6.46a20.21,20.21,0,0,1-8.83,3c-5.19.47-10.87.63-10.87.63Z" transform="translate(-356.08 -155.86)"/><path d="M596.56,398.12s1.41,7.56,6.3,10.39,9.6,5.05,9.6,5.05l22.37,17L599.4,444.9S604,455.61,607.74,461s6.46,7.88,6.46,7.4,22.37-10.87,34.33-15.43,18-7.25,20.17-11.81-2.52-9.76-4.73-13.86-17.17-25.19-19.85-28.19a15.87,15.87,0,0,0-4.88-3.94S614.67,399.86,596.56,398.12Z" transform="translate(-356.08 -155.86)"/><path class="cls-27" d="M599.39,444.9l-9.61-.16-11.18,5,4.73,11,2.2-1.42s1.1,10.55,4.25,17.64,10.08,13.08,11.66,12.92,2.83-2.68,2.83-2.68-5.51-9.29-4.41-14.49,3.47-13.54,3.47-13.54l1.73-1.89S599.71,447.58,599.39,444.9Z" transform="translate(-356.08 -155.86)"/><path class="cls-8" d="M599.39,444.9l-7.25-.12c.36,1.78,1,4.55,1.74,5.48,1,1.27,6.79,3.3,9.79,8.6l1.39-1.51S599.71,447.58,599.39,444.9Z" transform="translate(-356.08 -155.86)"/><path d="M601.44,489.94a2.32,2.32,0,0,0,1.19-.55c-3-2-6.19-5.68-9.23-9.68-4.41-5.84-4.73-17.8-5.35-20.33-.53-2.09-3.78-9.31-4.85-11.68l-4.6,2.07,4.73,11,2.2-1.42s1.1,10.56,4.25,17.64S599.86,490.1,601.44,489.94ZM627.15,291s-.47-4-.71-5.68.71-10.15,5.32-13.58,12.63-3.78,17.48-1.42,9.21,5.09,10.15,6.74,1.42,4.73,1.07,5.67-1,.95-1,.95l-5-4.14s-3.66,3.79-3.78,4.73-1.3,6.26-1.3,6.26-2.25-.12-2.25-.47-2.24-6.61-3.89-6.38-3.86-.24-4.85,3.54c-.28,1.09-.83,3.79-.83,3.79l-7.33,3Z" transform="translate(-356.08 -155.86)"/><path class="cls-28" d="M654.56,279.56s-3.66,3.79-3.78,4.73-1.3,6.26-1.3,6.26-2.25-.12-2.25-.47-2.24-6.61-3.9-6.38-3.85-.24-4.84,3.54c-.28,1.09-.83,3.79-.83,3.79l-7.33,3L640,307l1.89-.79s7.72,2.6,8.43,2.52,1.5-3.39,1.5-3.7,1.34-.63,1.89-.79-.16-1.34-.16-1.34l1.34-.24.47-2.84a6.21,6.21,0,0,0,1.34.47,9,9,0,0,0,1.58-.55l-1.26-9,1.42-1.34.55-6-.14-.31Z" transform="translate(-356.08 -155.86)"/><path class="cls-29" d="M620.5,331.65s2,7.56,20.47,20,30.72,19.84,35,22.21,10.71,8.19,10.71,8.19a50.59,50.59,0,0,0,5.66-7.88,27.87,27.87,0,0,0,2.52-5.67s-22.68-15.59-29.46-20.95-15.9-16.22-16.85-18.42-1.1-16.85-7.87-20.64-14.34,0-17.64,8A33.78,33.78,0,0,0,620.5,331.65Z" transform="translate(-356.08 -155.86)"/><path d="M688.81,379l5.67,2.36a14,14,0,0,0,3.43-5.44c1.19-3.43,1.66-5,1.66-5l-4.73-2.48S690.94,377.25,688.81,379Z" transform="translate(-356.08 -155.86)"/><path class="cls-30" d="M699.57,371.94s8-.95,10-.95,5.9,1.18,9.33,2.71,6,3.9,6,4.49-.59,1.54-2.49,1.19-9.57-2-10.87-1.89-7.55,3.43-9.57,3.43a22,22,0,0,1-5.67-1.42S699.57,373.7,699.57,371.94Z" transform="translate(-356.08 -155.86)"/><path class="cls-31" d="M693.42,262.43s3.79-1.81,5.83-2.91,6.61-3.46,10.08-4.88,8-3.94,8.51-2.68-9,6.77-9,6.77,3.15,3.79,3.15,4.41-3.31,6.14-3.31,6.14a4.61,4.61,0,0,1-6.45-1.1l-4.73,1.42S695,263.77,693.42,262.43Z" transform="translate(-356.08 -155.86)"/><path class="cls-8" d="M540.38,236.52a1.63,1.63,0,1,0-1.63-1.63A1.62,1.62,0,0,0,540.38,236.52Z" transform="translate(-356.08 -155.86)"/><path class="cls-8" d="M599.46,283.72a.81.81,0,1,1-.8-.8A.8.8,0,0,1,599.46,283.72Zm-95.69,13.75a2.27,2.27,0,0,1-.16.86,2.21,2.21,0,0,1-1.19,1.21,2.21,2.21,0,0,1-1.7,0,2.21,2.21,0,0,1-1.19-1.21,2.08,2.08,0,0,1-.15-.86A2.18,2.18,0,0,1,500,296a2.2,2.2,0,0,1,3.74,1.52Zm-59.06-10.22a1.69,1.69,0,0,1-.49,1.2,1.7,1.7,0,0,1-2.39,0,1.69,1.69,0,1,1,2.88-1.2ZM592.33,239.2a1.54,1.54,0,1,1-1.54-1.54A1.54,1.54,0,0,1,592.33,239.2Z" transform="translate(-356.08 -155.86)"/><path class="cls-8" d="M885.2,224.3a2,2,0,1,0-2-2A2,2,0,0,0,885.2,224.3Z" transform="translate(-356.08 -155.86)"/><path class="cls-8" d="M958.39,282.78a1,1,0,1,1-1-1A1,1,0,0,1,958.39,282.78Zm-118.55,17a2.72,2.72,0,1,1-2.72-2.72A2.72,2.72,0,0,1,839.84,299.81Zm-73.15-12.67a2.1,2.1,0,1,1-2.09-2.09,2.08,2.08,0,0,1,2.09,2.09Zm182.88-59.52a1.91,1.91,0,1,1-1.91-1.9A1.91,1.91,0,0,1,949.57,227.62Z" transform="translate(-356.08 -155.86)"/><path class="cls-8" d="M797.17,466.69a2,2,0,1,0-2-2A2,2,0,0,0,797.17,466.69Z" transform="translate(-356.08 -155.86)"/><path class="cls-8" d="M870.37,525.16a1,1,0,1,1-2,0,1,1,0,0,1,2,0Zm-118.55,17a2.73,2.73,0,1,1-2.72-2.72A2.72,2.72,0,0,1,751.82,542.19Zm-73.15-12.66a2.1,2.1,0,1,1-2.1-2.1A2.1,2.1,0,0,1,678.67,529.53ZM861.54,470a1.91,1.91,0,1,1-1.91-1.91A1.91,1.91,0,0,1,861.54,470Z" transform="translate(-356.08 -155.86)"/><path class="cls-8" d="M714.93,559a1.09,1.09,0,1,0-1.09-1.09A1.09,1.09,0,0,0,714.93,559Z" transform="translate(-356.08 -155.86)"/><path class="cls-8" d="M754.73,590.84a.55.55,0,0,1-.16.39.55.55,0,0,1-.38.16.55.55,0,0,1-.55-.55.55.55,0,0,1,1.09,0Zm-64.46,9.26a1.47,1.47,0,0,1-1.48,1.48,1.44,1.44,0,0,1-1-.43,1.48,1.48,0,1,1,2.52-1Zm-39.77-6.89a1.14,1.14,0,1,1-1.14-1.13A1.14,1.14,0,0,1,650.5,593.21Zm99.43-32.36a1,1,0,1,1-1-1A1,1,0,0,1,749.93,560.85Z" transform="translate(-356.08 -155.86)"/><path class="cls-8" d="M481.72,379.07a1.09,1.09,0,1,0-1.09-1.09A1.09,1.09,0,0,0,481.72,379.07Z" transform="translate(-356.08 -155.86)"/><path class="cls-8" d="M521.52,410.87a.78.78,0,0,1,0,.22.57.57,0,0,1-.12.18.59.59,0,0,1-.18.13.78.78,0,0,1-.21,0,.71.71,0,0,1-.21,0,.59.59,0,0,1-.18-.13.57.57,0,0,1-.12-.18.51.51,0,0,1,0-.21.53.53,0,0,1,.16-.38.58.58,0,0,1,.38-.15.56.56,0,0,1,.37.15A.5.5,0,0,1,521.52,410.87Zm-64.46,9.26a1.48,1.48,0,0,1-.44,1.05,1.44,1.44,0,0,1-1,.43,1.47,1.47,0,0,1-1.48-1.48,1.44,1.44,0,0,1,.43-1,1.48,1.48,0,0,1,1.05-.44,1.5,1.5,0,0,1,1.48,1.48Zm-39.77-6.88a1.14,1.14,0,1,1-1.14-1.13A1.14,1.14,0,0,1,417.29,413.25Zm99.43-32.37a1,1,0,1,1-1-1A1,1,0,0,1,516.72,380.88Z" transform="translate(-356.08 -155.86)"/><path class="cls-8" d="M895.79,353.94a1.1,1.1,0,1,0-1.09-1.1A1.1,1.1,0,0,0,895.79,353.94Z" transform="translate(-356.08 -155.86)"/><path class="cls-8" d="M935.59,385.74a.54.54,0,1,1-1.08,0,.55.55,0,0,1,.54-.55A.53.53,0,0,1,935.59,385.74ZM871.13,395a1.46,1.46,0,0,1-.43,1,1.48,1.48,0,0,1-2.53-1,1.51,1.51,0,0,1,.43-1.05,1.47,1.47,0,0,1,2.1,0A1.47,1.47,0,0,1,871.13,395Zm-39.77-6.89a1.14,1.14,0,1,1-1.13-1.13A1.12,1.12,0,0,1,831.36,388.11Zm99.43-32.37a1,1,0,1,1-1-1A1,1,0,0,1,930.79,355.74Z" transform="translate(-356.08 -155.86)"/><path class="cls-8" d="M776,281.41a1.09,1.09,0,1,0-1.09-1.09A1.09,1.09,0,0,0,776,281.41Z" transform="translate(-356.08 -155.86)"/><path class="cls-8" d="M815.76,313.21a.55.55,0,0,1-.54.55.55.55,0,1,1,.54-.55Zm-64.46,9.26a1.51,1.51,0,0,1-.43,1,1.5,1.5,0,0,1-2.1,0,1.47,1.47,0,0,1-.43-1,1.44,1.44,0,0,1,.43-1,1.48,1.48,0,0,1,2.53,1Zm-39.77-6.88a1.14,1.14,0,1,1-1.13-1.14A1.14,1.14,0,0,1,711.53,315.59ZM811,283.22a1,1,0,1,1-1-1A1,1,0,0,1,811,283.22Z" transform="translate(-356.08 -155.86)"/><path class="cls-32" d="M875.22,195.77a16.83,16.83,0,0,1,8.62,2.36,16.88,16.88,0,0,1,23-14.54,19.73,19.73,0,0,1,38.64,5.65q0,.42,0,.84h0a19.74,19.74,0,0,1,0,39.47c-.68,0-1.36,0-2-.1H877.05c-.61.06-1.21.1-1.84.1a16.89,16.89,0,1,1,0-33.78Z" transform="translate(-356.08 -155.86)"/><path class="cls-33" d="M791.25,218.13a9.63,9.63,0,0,0-4.94,1.35A9.63,9.63,0,0,0,773.52,211a11.31,11.31,0,0,0-10.8-8c-.38,0-.75,0-1.12.06A11.28,11.28,0,0,0,751.53,211a9.56,9.56,0,0,0-3.17-.55,9.67,9.67,0,0,0-9.64,9,9.67,9.67,0,1,0-4.94,18c.36,0,.71,0,1.06-.05h14.85c.43,0,.87.08,1.32.08a10.93,10.93,0,0,0,1.15-.06h21.21c.21,0,.43,0,.65,0s.44,0,.65,0H790.2a9.11,9.11,0,0,0,1,.06,9.67,9.67,0,0,0,0-19.34Z" transform="translate(-356.08 -155.86)"/></svg>