<svg id="Слой_1" data-name="Слой 1" xmlns="http://www.w3.org/2000/svg" xmlns:xlink="http://www.w3.org/1999/xlink" viewBox="0 0 761.23 555.43"><defs><style>.cls-1{fill:url(#Безымянный_градиент_7);}.cls-2{fill:url(#Безымянный_градиент_2);}.cls-3{fill:url(#Безымянный_градиент_7-2);}.cls-4{fill:url(#Безымянный_градиент_7-3);}.cls-5{fill:url(#Безымянный_градиент_5);}.cls-6{fill:url(#Безымянный_градиент_7-4);}.cls-7{fill:url(#Безымянный_градиент_7-5);}.cls-8{fill:url(#Безымянный_градиент_12);}.cls-9{fill:url(#Безымянный_градиент_12-2);}.cls-10{fill:url(#Безымянный_градиент_12-3);}.cls-11{fill:url(#Безымянный_градиент_12-4);}.cls-12{fill:url(#Безымянный_градиент_12-5);}.cls-13{fill:url(#Безымянный_градиент_17);}.cls-14{fill:url(#Безымянный_градиент_17-2);}.cls-15{fill:url(#Безымянный_градиент_17-3);}.cls-16{fill:url(#Безымянный_градиент_17-4);}.cls-17{fill:url(#Безымянный_градиент_17-5);}.cls-18{fill:url(#Безымянный_градиент_22);}.cls-19{fill:url(#Безымянный_градиент_22-2);}.cls-20{fill:url(#Безымянный_градиент_22-3);}.cls-21{fill:url(#Безымянный_градиент_22-4);}.cls-22{fill:url(#Безымянный_градиент_22-5);}.cls-23{fill:url(#Безымянный_градиент_29);}.cls-24{fill:url(#Безымянный_градиент_24);}.cls-106,.cls-25,.cls-96{opacity:0.3;}.cls-26,.cls-50,.cls-51,.cls-95,.cls-96{fill:#fff;}.cls-106,.cls-26,.cls-48,.cls-51,.cls-52,.cls-53,.cls-95,.cls-96{isolation:isolate;}.cls-26{opacity:0.56;}.cls-27{opacity:0.7;}.cls-28{fill:#2b73b5;}.cls-29{fill:#56abdd;}.cls-30{fill:#951aac;}.cls-31{fill:#741aac;}.cls-32{fill:#a91aac;}.cls-33{fill:#00ddd2;}.cls-34{fill:#00ccbd;}.cls-35,.cls-48{opacity:0.6;}.cls-36{fill:#701aac;}.cls-37{fill:url(#Безымянный_градиент_25);}.cls-38{fill:#00ffec;}.cls-39{fill:#009bdd;}.cls-40{fill:url(#Безымянный_градиент_32);}.cls-41{opacity:0.8;}.cls-42{fill:url(#Безымянный_градиент_29-2);}.cls-43{fill:url(#Безымянный_градиент_29-3);}.cls-44{fill:url(#Безымянный_градиент_29-4);}.cls-45{fill:#b3efff;}.cls-46{fill:url(#Безымянный_градиент_30);}.cls-47{fill:url(#Безымянный_градиент_32-2);}.cls-48{fill:url(#Безымянный_градиент_32-3);}.cls-49{fill:#125cae;}.cls-51{opacity:0.4;}.cls-52,.cls-53{opacity:0.73;}.cls-52{fill:url(#Безымянный_градиент_34);}.cls-53{fill:url(#Безымянный_градиент_34-2);}.cls-54{opacity:0.5;}.cls-55{fill:url(#Безымянный_градиент_118);}.cls-56{fill:url(#Безымянный_градиент_118-2);}.cls-57{fill:url(#Безымянный_градиент_118-3);}.cls-58{fill:url(#Безымянный_градиент_118-4);}.cls-59{fill:url(#Безымянный_градиент_86);}.cls-60{fill:url(#Безымянный_градиент_118-5);}.cls-61{fill:url(#Безымянный_градиент_118-6);}.cls-62{fill:url(#Безымянный_градиент_118-7);}.cls-63{fill:url(#Безымянный_градиент_118-8);}.cls-64{fill:url(#Безымянный_градиент_118-9);}.cls-65{fill:url(#Безымянный_градиент_118-10);}.cls-66{fill:url(#Безымянный_градиент_118-11);}.cls-67{fill:url(#Безымянный_градиент_47);}.cls-68{fill:url(#Безымянный_градиент_118-12);}.cls-69{fill:url(#Безымянный_градиент_118-13);}.cls-70{fill:url(#Безымянный_градиент_118-14);}.cls-71{fill:url(#Безымянный_градиент_118-15);}.cls-72{fill:url(#Безымянный_градиент_118-16);}.cls-73{fill:url(#Безымянный_градиент_118-17);}.cls-74{fill:url(#Безымянный_градиент_118-18);}.cls-75{fill:url(#Безымянный_градиент_118-19);}.cls-76{fill:url(#Безымянный_градиент_118-20);}.cls-77{fill:url(#Безымянный_градиент_118-21);}.cls-78{fill:url(#Безымянный_градиент_118-22);}.cls-79{fill:url(#Безымянный_градиент_118-23);}.cls-80{fill:url(#Безымянный_градиент_118-24);}.cls-81{fill:url(#Безымянный_градиент_118-25);}.cls-82{fill:url(#Безымянный_градиент_118-26);}.cls-83{fill:url(#Безымянный_градиент_118-27);}.cls-84{fill:url(#Безымянный_градиент_118-28);}.cls-85{fill:url(#Безымянный_градиент_118-29);}.cls-86{fill:url(#Безымянный_градиент_118-30);}.cls-87{fill:url(#Безымянный_градиент_118-31);}.cls-88{fill:url(#Безымянный_градиент_118-32);}.cls-89{fill:url(#Безымянный_градиент_118-33);}.cls-90{fill:url(#Безымянный_градиент_118-34);}.cls-91{fill:url(#Безымянный_градиент_118-35);}.cls-92{fill:none;stroke:#fff;stroke-width:2.13px;}.cls-93{fill:#ff277f;}.cls-94{fill:#c71aac;}.cls-95{opacity:0.2;}.cls-97{fill:url(#Безымянный_градиент_79);}.cls-98{fill:url(#Безымянный_градиент_79-2);}.cls-99{fill:url(#Безымянный_градиент_79-3);}.cls-100{fill:url(#Безымянный_градиент_78);}.cls-101{fill:url(#Безымянный_градиент_80);}.cls-102{fill:url(#Безымянный_градиент_77);}.cls-103{fill:url(#Безымянный_градиент_78-2);}.cls-104{fill:url(#Безымянный_градиент_79-4);}.cls-105{fill:url(#Безымянный_градиент_80-2);}.cls-106{fill:url(#Безымянный_градиент_81);}.cls-107{fill:url(#Безымянный_градиент_118-36);}.cls-108{fill:url(#Безымянный_градиент_118-37);}.cls-109{fill:url(#Безымянный_градиент_118-38);}.cls-110{fill:url(#Безымянный_градиент_118-39);}.cls-111{fill:url(#Безымянный_градиент_86-2);}.cls-112{fill:url(#Безымянный_градиент_118-40);}.cls-113{fill:url(#Безымянный_градиент_118-41);}.cls-114{fill:url(#Безымянный_градиент_118-42);}.cls-115{fill:url(#Безымянный_градиент_118-43);}.cls-116{fill:url(#Безымянный_градиент_118-44);}.cls-117{fill:url(#Безымянный_градиент_118-45);}.cls-118{fill:url(#Безымянный_градиент_118-46);}.cls-119{fill:url(#Безымянный_градиент_118-47);}.cls-120{fill:url(#Безымянный_градиент_118-48);}.cls-121{fill:url(#Безымянный_градиент_118-49);}.cls-122{fill:url(#Безымянный_градиент_118-50);}.cls-123{fill:url(#Безымянный_градиент_118-51);}.cls-124{fill:url(#Безымянный_градиент_118-52);}.cls-125{fill:url(#Безымянный_градиент_118-53);}.cls-126{fill:url(#Безымянный_градиент_118-54);}.cls-127{fill:url(#Безымянный_градиент_118-55);}.cls-128{fill:url(#Безымянный_градиент_118-56);}.cls-129{fill:url(#Безымянный_градиент_118-57);}.cls-130{fill:url(#Безымянный_градиент_118-58);}.cls-131{fill:url(#Безымянный_градиент_118-59);}.cls-132{fill:url(#Безымянный_градиент_118-60);}.cls-133{fill:url(#Безымянный_градиент_118-61);}.cls-134{fill:url(#Безымянный_градиент_118-62);}.cls-135{fill:url(#Безымянный_градиент_118-63);}.cls-136{fill:url(#Безымянный_градиент_118-64);}.cls-137{fill:url(#Безымянный_градиент_118-65);}.cls-138{fill:url(#Безымянный_градиент_118-66);}.cls-139{fill:url(#Безымянный_градиент_118-67);}.cls-140{fill:url(#Безымянный_градиент_118-68);}.cls-141{fill:url(#Безымянный_градиент_118-69);}.cls-142{fill:url(#Безымянный_градиент_118-70);}.cls-143{fill:url(#Безымянный_градиент_118-71);}.cls-144{fill:#d9007f;}.cls-145{fill:#ac006b;}.cls-146{fill:#ff00a6;}</style><linearGradient id="Безымянный_градиент_7" x1="13373.95" y1="-18090.68" x2="37279.35" y2="-52389.08" gradientTransform="matrix(1, 0, 0, -1, 262.06, 856.36)" gradientUnits="userSpaceOnUse"><stop offset="0" stop-color="#270036"/><stop offset="0.59" stop-color="#4f008b"/><stop offset="1" stop-color="#4c24b1"/></linearGradient><radialGradient id="Безымянный_градиент_2" cx="1" cy="769" r="1" gradientTransform="matrix(20664.5, 0, 0, -20664.5, 394.86, 15911860.16)" gradientUnits="userSpaceOnUse"><stop offset="0" stop-color="#3e82bf"/><stop offset="1" stop-color="#3e82bf" stop-opacity="0"/></radialGradient><linearGradient id="Безымянный_градиент_7-2" x1="1623.96" y1="-1217.19" x2="3862.13" y2="-4583.61" xlink:href="#Безымянный_градиент_7"/><linearGradient id="Безымянный_градиент_7-3" x1="2003.19" y1="-1271.94" x2="3953.7" y2="-3510.18" xlink:href="#Безымянный_градиент_7"/><linearGradient id="Безымянный_градиент_5" x1="468.81" y1="442.96" x2="11949.19" y2="442.96" gradientTransform="matrix(1, 0, 0, -1, 262.06, 856.36)" gradientUnits="userSpaceOnUse"><stop offset="0" stop-color="#b208ab"/><stop offset="1" stop-color="#4e0d98"/></linearGradient><linearGradient id="Безымянный_градиент_7-4" x1="1074.79" y1="-615.29" x2="3313.18" y2="-4565.06" xlink:href="#Безымянный_градиент_7"/><linearGradient id="Безымянный_градиент_7-5" x1="3297" y1="-1859.99" x2="6619.46" y2="-4622.2" xlink:href="#Безымянный_градиент_7"/><linearGradient id="Безымянный_градиент_12" x1="268.91" y1="409.43" x2="7060.97" y2="409.43" gradientTransform="matrix(1, 0, 0, -1, 262.06, 856.36)" gradientUnits="userSpaceOnUse"><stop offset="0" stop-color="#3f499c"/><stop offset="1" stop-color="#c619bb"/></linearGradient><linearGradient id="Безымянный_градиент_12-2" x1="263.51" y1="398.08" x2="7006.05" y2="398.08" xlink:href="#Безымянный_градиент_12"/><linearGradient id="Безымянный_градиент_12-3" x1="211.44" y1="387.7" x2="11021.07" y2="387.7" xlink:href="#Безымянный_градиент_12"/><linearGradient id="Безымянный_градиент_12-4" x1="277.16" y1="442.84" x2="11800.97" y2="442.84" xlink:href="#Безымянный_градиент_12"/><linearGradient id="Безымянный_градиент_12-5" x1="341.44" y1="448.76" x2="6017.18" y2="448.76" xlink:href="#Безымянный_градиент_12"/><linearGradient id="Безымянный_градиент_17" x1="246.63" y1="285.79" x2="7061.26" y2="285.79" gradientTransform="matrix(1, 0, 0, -1, 262.06, 856.36)" gradientUnits="userSpaceOnUse"><stop offset="0" stop-color="#4d1aa6"/><stop offset="1" stop-color="#e42d97"/></linearGradient><linearGradient id="Безымянный_градиент_17-2" x1="241.39" y1="297.17" x2="7006.32" y2="297.17" xlink:href="#Безымянный_градиент_17"/><linearGradient id="Безымянный_градиент_17-3" x1="239.35" y1="252.39" x2="11801.47" y2="252.39" xlink:href="#Безымянный_градиент_17"/><linearGradient id="Безымянный_градиент_17-4" x1="322.82" y1="246.47" x2="6017.41" y2="246.47" xlink:href="#Безымянный_градиент_17"/><linearGradient id="Безымянный_градиент_17-5" x1="175.96" y1="307.55" x2="11021.57" y2="307.55" xlink:href="#Безымянный_градиент_17"/><linearGradient id="Безымянный_градиент_22" x1="610.51" y1="297.28" x2="7280.08" y2="297.28" gradientTransform="matrix(1, 0, 0, -1, 262.06, 856.36)" gradientUnits="userSpaceOnUse"><stop offset="0" stop-color="#b32aff"/><stop offset="1" stop-color="#4c24b1"/></linearGradient><linearGradient id="Безымянный_градиент_22-2" x1="605.51" y1="285.92" x2="7324.07" y2="285.92" xlink:href="#Безымянный_градиент_22"/><linearGradient id="Безымянный_градиент_22-3" x1="693.89" y1="307.66" x2="11386.57" y2="307.66" xlink:href="#Безымянный_градиент_22"/><linearGradient id="Безымянный_градиент_22-4" x1="524.37" y1="246.6" x2="6137.7" y2="246.6" xlink:href="#Безымянный_градиент_22"/><linearGradient id="Безымянный_градиент_22-5" x1="633.65" y1="252.52" x2="12032.77" y2="252.52" xlink:href="#Безымянный_градиент_22"/><linearGradient id="Безымянный_градиент_29" x1="99.83" y1="538.55" x2="53298.37" y2="538.55" gradientTransform="matrix(1, 0, 0, -1, 262.06, 856.36)" gradientUnits="userSpaceOnUse"><stop offset="0" stop-color="#a1baff"/><stop offset="0.43" stop-color="#fff"/></linearGradient><linearGradient id="Безымянный_градиент_24" x1="103.55" y1="470.64" x2="52068.53" y2="470.64" gradientTransform="matrix(1, 0, 0, -1, 262.06, 856.36)" gradientUnits="userSpaceOnUse"><stop offset="0" stop-color="#3133ab"/><stop offset="0.18" stop-color="#2e38b0"/><stop offset="0.41" stop-color="#2647bd"/><stop offset="0.65" stop-color="#1960d4"/><stop offset="0.91" stop-color="#0783f3"/><stop offset="1" stop-color="#0090ff"/></linearGradient><linearGradient id="Безымянный_градиент_25" x1="149.38" y1="296.83" x2="149.38" y2="-8865.07" gradientTransform="matrix(1, 0, 0, -1, 262.06, 856.36)" gradientUnits="userSpaceOnUse"><stop offset="0" stop-color="#311341"/><stop offset="0.23" stop-color="#3113c2"/><stop offset="0.35" stop-color="#2f18c5"/><stop offset="0.49" stop-color="#2927cc"/><stop offset="0.65" stop-color="#1f40d8"/><stop offset="0.82" stop-color="#1263e9"/><stop offset="1" stop-color="#008fff"/><stop offset="1" stop-color="#0090ff"/></linearGradient><linearGradient id="Безымянный_градиент_32" x1="98.34" y1="374.89" x2="7661.49" y2="374.89" gradientTransform="matrix(1, 0, 0, -1, 262.06, 856.36)" gradientUnits="userSpaceOnUse"><stop offset="0" stop-color="#7633ff"/><stop offset="0.16" stop-color="#7137ff"/><stop offset="0.35" stop-color="#6243ff"/><stop offset="0.57" stop-color="#4957ff"/><stop offset="0.79" stop-color="#2672ff"/><stop offset="1" stop-color="#0090ff"/></linearGradient><linearGradient id="Безымянный_градиент_29-2" x1="100.38" y1="476.39" x2="7489.23" y2="476.39" xlink:href="#Безымянный_градиент_29"/><linearGradient id="Безымянный_градиент_29-3" x1="170.19" y1="-658.53" x2="170.19" y2="-18888.49" xlink:href="#Безымянный_градиент_29"/><linearGradient id="Безымянный_градиент_29-4" x1="626.18" y1="537.53" x2="1163.25" y2="-21636.45" xlink:href="#Безымянный_градиент_29"/><linearGradient id="Безымянный_градиент_30" x1="736.36" y1="1318.57" x2="-644.18" y2="-5546" gradientTransform="matrix(1, 0, 0, -1, 262.06, 856.36)" gradientUnits="userSpaceOnUse"><stop offset="0" stop-color="#88cfda"/><stop offset="0.01" stop-color="#89cfd9"/><stop offset="0.48" stop-color="#c8d9bb"/><stop offset="0.82" stop-color="#f0dfa7"/><stop offset="1" stop-color="#ffe1a0"/></linearGradient><linearGradient id="Безымянный_градиент_32-2" x1="268.06" y1="697.92" x2="2779.79" y2="697.92" xlink:href="#Безымянный_градиент_32"/><linearGradient id="Безымянный_градиент_32-3" x1="69.05" y1="571.3" x2="1952.83" y2="571.3" xlink:href="#Безымянный_градиент_32"/><linearGradient id="Безымянный_градиент_34" x1="679.95" y1="-32201.79" x2="679.95" y2="-14.94" gradientTransform="matrix(1, 0, 0, -1, 262.06, 856.36)" gradientUnits="userSpaceOnUse"><stop offset="0" stop-color="#9311ff"/><stop offset="1" stop-color="#330050" stop-opacity="0"/></linearGradient><linearGradient id="Безымянный_градиент_34-2" x1="215.59" y1="-50323.89" x2="215.59" y2="-379.27" xlink:href="#Безымянный_градиент_34"/><radialGradient id="Безымянный_градиент_118" cx="1.04" cy="769.07" r="1" gradientTransform="matrix(-30.04, 478.34, 488.6, 30.68, -376034.16, -23042.1)" gradientUnits="userSpaceOnUse"><stop offset="0" stop-color="#ff0091"/><stop offset="0.14" stop-color="#ff17a8"/><stop offset="0.24" stop-color="#b200ff"/><stop offset="1" stop-color="#ff09a0" stop-opacity="0"/></radialGradient><radialGradient id="Безымянный_градиент_118-2" cx="1.04" cy="769.07" r="1" gradientTransform="matrix(-27.21, 433.2, 442.71, 27.8, -340721.02, -20833.52)" xlink:href="#Безымянный_градиент_118"/><radialGradient id="Безымянный_градиент_118-3" cx="1.06" cy="769.12" r="1" gradientTransform="matrix(-17.06, 271.73, 276.73, 17.37, -212846.96, -12834.22)" xlink:href="#Безымянный_градиент_118"/><radialGradient id="Безымянный_градиент_118-4" cx="1.04" cy="769.07" r="1" gradientTransform="matrix(-27.21, 433.25, 442.67, 27.8, -340628.43, -20845.05)" xlink:href="#Безымянный_градиент_118"/><radialGradient id="Безымянный_градиент_86" cx="1.05" cy="769.1" r="1" gradientTransform="matrix(-20.04, 319.61, 325.6, 20.41, -250351.35, -15217.63)" gradientUnits="userSpaceOnUse"><stop offset="0" stop-color="#d6d5d5"/><stop offset="0.04" stop-color="#b7b5b5"/><stop offset="0.12" stop-color="#817e7e"/><stop offset="0.2" stop-color="#575253"/><stop offset="0.27" stop-color="#383334"/><stop offset="0.32" stop-color="#262021"/><stop offset="0.36" stop-color="#1f191a"/><stop offset="0.99"/></radialGradient><radialGradient id="Безымянный_градиент_118-5" cx="1.06" cy="769.12" r="1" gradientTransform="matrix(-17.06, 271.73, 276.72, 17.38, -212787.34, -12859.42)" xlink:href="#Безымянный_градиент_118"/><radialGradient id="Безымянный_градиент_118-6" cx="1.06" cy="769.12" r="1" gradientTransform="matrix(-17.04, 271.31, 277.24, 17.41, -213168.86, -12874.72)" xlink:href="#Безымянный_градиент_118"/><radialGradient id="Безымянный_градиент_118-7" cx="1.04" cy="769.07" r="1" gradientTransform="matrix(-27.21, 433.2, 442.63, 27.8, -340576.37, -20821.95)" xlink:href="#Безымянный_градиент_118"/><radialGradient id="Безымянный_градиент_118-8" cx="1.06" cy="769.11" r="1" gradientTransform="matrix(-17.06, 271.69, 277.63, 17.43, -213489.58, -12852.33)" xlink:href="#Безымянный_градиент_118"/><radialGradient id="Безымянный_градиент_118-9" cx="1.06" cy="769.11" r="1" gradientTransform="matrix(-17.06, 271.69, 277.63, 17.43, -213465.8, -12871.5)" xlink:href="#Безымянный_градиент_118"/><radialGradient id="Безымянный_градиент_118-10" cx="1.01" cy="769.02" r="1" gradientTransform="matrix(-82.1, 1307.46, 1336.32, 83.91, -1029112.74, -63956.57)" xlink:href="#Безымянный_градиент_118"/><radialGradient id="Безымянный_градиент_118-11" cx="1.01" cy="769.02" r="1" gradientTransform="matrix(-82.12, 1307.51, 1336.37, 83.93, -1029157.42, -63953.1)" xlink:href="#Безымянный_градиент_118"/><radialGradient id="Безымянный_градиент_47" cx="1.01" cy="769.03" r="1" gradientTransform="matrix(-74.53, 1186.81, 1213.08, 76.18, -934336.73, -57871)" gradientUnits="userSpaceOnUse"><stop offset="0" stop-color="#ff0091"/><stop offset="0.14" stop-color="#ff17a8"/><stop offset="0.29" stop-color="#b200ff"/><stop offset="1" stop-color="#fff" stop-opacity="0"/></radialGradient><radialGradient id="Безымянный_градиент_118-12" cx="1.02" cy="769.04" r="1" gradientTransform="matrix(-51.86, 825.74, 842.8, 52.93, -648904.94, -40176.53)" xlink:href="#Безымянный_градиент_118"/><radialGradient id="Безымянный_градиент_118-13" cx="1.01" cy="769.02" r="1" gradientTransform="matrix(-82.1, 1307.46, 1336.4, 83.92, -1029075, -63944.31)" xlink:href="#Безымянный_градиент_118"/><radialGradient id="Безымянный_градиент_118-14" cx="1.01" cy="769.02" r="1" gradientTransform="matrix(-82.1, 1307.46, 1336.32, 83.91, -1029097.47, -63981.19)" xlink:href="#Безымянный_градиент_118"/><radialGradient id="Безымянный_градиент_118-15" cx="1.02" cy="769.04" r="1" gradientTransform="matrix(-45.44, 723.66, 738.92, 46.4, -568835.83, -35149.64)" xlink:href="#Безымянный_градиент_118"/><radialGradient id="Безымянный_градиент_118-16" cx="1.06" cy="769.11" r="1" gradientTransform="matrix(-17.03, 271.26, 278.06, 17.46, -213831.46, -12935.15)" xlink:href="#Безымянный_градиент_118"/><radialGradient id="Безымянный_градиент_118-17" cx="1.06" cy="769.12" r="1" gradientTransform="matrix(-17.06, 271.68, 276.01, 17.33, -212302.73, -12851.12)" xlink:href="#Безымянный_градиент_118"/><radialGradient id="Безымянный_градиент_118-18" cx="1.04" cy="769.07" r="1" gradientTransform="matrix(-30.03, 478.34, 488.51, 30.67, -375971.13, -23137.86)" xlink:href="#Безымянный_градиент_118"/><radialGradient id="Безымянный_градиент_118-19" cx="1.04" cy="769.07" r="1" gradientTransform="matrix(-27.21, 433.21, 442.62, 27.8, -340660.13, -20932.1)" xlink:href="#Безымянный_градиент_118"/><radialGradient id="Безымянный_градиент_118-20" cx="1.06" cy="769.12" r="1" gradientTransform="matrix(-17.06, 271.73, 276.73, 17.37, -212855.2, -12937.18)" xlink:href="#Безымянный_градиент_118"/><radialGradient id="Безымянный_градиент_118-21" cx="1.04" cy="769.07" r="1" gradientTransform="matrix(-27.21, 433.25, 442.67, 27.8, -340636.65, -20948)" xlink:href="#Безымянный_градиент_118"/><radialGradient id="Безымянный_градиент_118-22" cx="1.06" cy="769.12" r="1" gradientTransform="matrix(-17.06, 271.68, 276.87, 17.39, -212939.12, -12951.17)" xlink:href="#Безымянный_градиент_118"/><radialGradient id="Безымянный_градиент_118-23" cx="1.06" cy="769.12" r="1" gradientTransform="matrix(-17.06, 271.73, 276.72, 17.38, -212795.56, -12962.37)" xlink:href="#Безымянный_градиент_118"/><radialGradient id="Безымянный_градиент_118-24" cx="1.06" cy="769.11" r="1" gradientTransform="matrix(-17.04, 271.31, 278, 17.46, -213757.09, -13012.99)" xlink:href="#Безымянный_градиент_118"/><radialGradient id="Безымянный_градиент_118-25" cx="1.04" cy="769.07" r="1" gradientTransform="matrix(-27.21, 433.2, 442.63, 27.8, -340584.6, -20924.9)" xlink:href="#Безымянный_градиент_118"/><radialGradient id="Безымянный_градиент_118-26" cx="1.06" cy="769.11" r="1" gradientTransform="matrix(-17.06, 271.69, 277.63, 17.43, -213497.8, -12955.28)" xlink:href="#Безымянный_градиент_118"/><radialGradient id="Безымянный_градиент_118-27" cx="1.06" cy="769.12" r="1" gradientTransform="matrix(-17.06, 271.69, 276.78, 17.38, -212817.92, -12935.05)" xlink:href="#Безымянный_градиент_118"/><radialGradient id="Безымянный_градиент_118-28" cx="1.01" cy="769.02" r="1" gradientTransform="matrix(-82.1, 1307.45, 1336.4, 83.92, -1029164.41, -64045.1)" xlink:href="#Безымянный_градиент_118"/><radialGradient id="Безымянный_градиент_118-29" cx="1.01" cy="769.02" r="1" gradientTransform="matrix(-82.11, 1307.5, 1336.27, 83.92, -1029071.1, -64027.5)" xlink:href="#Безымянный_градиент_118"/><radialGradient id="Безымянный_градиент_118-30" cx="1.01" cy="769.02" r="1" gradientTransform="matrix(-82.1, 1307.43, 1336.46, 83.93, -1029196.32, -64034.14)" xlink:href="#Безымянный_градиент_118"/><radialGradient id="Безымянный_градиент_118-31" cx="1.02" cy="769.04" r="1" gradientTransform="matrix(-51.86, 825.74, 842.8, 52.93, -648895.19, -40260.58)" xlink:href="#Безымянный_градиент_118"/><radialGradient id="Безымянный_градиент_118-32" cx="1.01" cy="769.01" r="1" gradientTransform="matrix(-98.09, 1562.06, 3610.04, 226.69, -2780558.7, -174015.57)" xlink:href="#Безымянный_градиент_118"/><radialGradient id="Безымянный_градиент_118-33" cx="1.02" cy="769.04" r="1" gradientTransform="matrix(-45.44, 723.66, 738.92, 46.4, -568824.54, -35233.59)" xlink:href="#Безымянный_градиент_118"/><radialGradient id="Безымянный_градиент_118-34" cx="1.06" cy="769.11" r="1" gradientTransform="matrix(-17.03, 271.27, 278.15, 17.47, -213897, -13023.62)" xlink:href="#Безымянный_градиент_118"/><radialGradient id="Безымянный_градиент_118-35" cx="1.06" cy="769.12" r="1" gradientTransform="matrix(-17.06, 271.68, 275.99, 17.33, -212280.01, -12933.15)" xlink:href="#Безымянный_градиент_118"/><linearGradient id="Безымянный_градиент_79" x1="470.7" y1="391.43" x2="14075.7" y2="391.43" gradientTransform="matrix(1, 0, 0, -1, 262.06, 856.36)" gradientUnits="userSpaceOnUse"><stop offset="0" stop-color="#fff"/><stop offset="0.12" stop-color="#fbfdff"/><stop offset="0.25" stop-color="#eff5ff"/><stop offset="0.37" stop-color="#dae9ff"/><stop offset="0.5" stop-color="#bdd9ff"/><stop offset="0.63" stop-color="#98c3ff"/><stop offset="0.76" stop-color="#6ba9ff"/><stop offset="0.88" stop-color="#378aff"/><stop offset="1" stop-color="#006aff"/></linearGradient><linearGradient id="Безымянный_градиент_79-2" x1="440.3" y1="364.44" x2="7079.2" y2="364.44" xlink:href="#Безымянный_градиент_79"/><linearGradient id="Безымянный_градиент_79-3" x1="328.74" y1="521" x2="2805.84" y2="521" xlink:href="#Безымянный_градиент_79"/><linearGradient id="Безымянный_градиент_78" x1="297.07" y1="483.17" x2="8442.35" y2="483.17" gradientTransform="matrix(1, 0, 0, -1, 262.06, 856.36)" gradientUnits="userSpaceOnUse"><stop offset="0" stop-color="#fff"/><stop offset="0.26" stop-color="#fdfeff"/><stop offset="0.4" stop-color="#f5f9ff"/><stop offset="0.51" stop-color="#e7f1ff"/><stop offset="0.6" stop-color="#d4e6ff"/><stop offset="0.69" stop-color="#bbd8ff"/><stop offset="0.76" stop-color="#9dc6ff"/><stop offset="0.83" stop-color="#78b0ff"/><stop offset="0.9" stop-color="#4e98ff"/><stop offset="0.96" stop-color="#207dff"/><stop offset="1" stop-color="#006aff"/></linearGradient><linearGradient id="Безымянный_градиент_80" x1="404.31" y1="422.07" x2="8571.53" y2="422.07" gradientTransform="matrix(1, 0, 0, -1, 262.06, 856.36)" gradientUnits="userSpaceOnUse"><stop offset="0" stop-color="#311842"/><stop offset="0.46" stop-color="#190c4b"/><stop offset="1" stop-color="#000054"/></linearGradient><linearGradient id="Безымянный_градиент_77" x1="355.34" y1="467.27" x2="7490.12" y2="467.27" gradientTransform="matrix(1, 0, 0, -1, 262.06, 856.36)" gradientUnits="userSpaceOnUse"><stop offset="0" stop-color="#f000b5"/><stop offset="0.18" stop-color="#ef04b8"/><stop offset="0.36" stop-color="#ea10bf"/><stop offset="0.55" stop-color="#e325cc"/><stop offset="0.74" stop-color="#d841de"/><stop offset="0.92" stop-color="#cb66f4"/><stop offset="1" stop-color="#c577ff"/></linearGradient><linearGradient id="Безымянный_градиент_78-2" x1="-346.95" y1="-9475.52" x2="421.61" y2="856.1" xlink:href="#Безымянный_градиент_78"/><linearGradient id="Безымянный_градиент_79-4" x1="482.2" y1="372.41" x2="5115.96" y2="372.41" xlink:href="#Безымянный_градиент_79"/><linearGradient id="Безымянный_градиент_80-2" x1="317.62" y1="525.62" x2="19783.07" y2="525.62" xlink:href="#Безымянный_градиент_80"/><linearGradient id="Безымянный_градиент_81" x1="328.33" y1="535.97" x2="18706.97" y2="535.97" gradientTransform="matrix(1, 0, 0, -1, 262.06, 856.36)" gradientUnits="userSpaceOnUse"><stop offset="0" stop-color="#311842"/><stop offset="0.49" stop-color="#170ba7"/><stop offset="0.84" stop-color="#0603e6"/><stop offset="1" stop-color="blue"/></linearGradient><radialGradient id="Безымянный_градиент_118-36" cx="1.04" cy="769.07" r="1" gradientTransform="matrix(-30.04, 478.34, 488.6, 30.68, -375569.16, -23191.1)" xlink:href="#Безымянный_градиент_118"/><radialGradient id="Безымянный_градиент_118-37" cx="1.04" cy="769.07" r="1" gradientTransform="matrix(-27.21, 433.2, 442.71, 27.8, -340256.02, -20982.52)" xlink:href="#Безымянный_градиент_118"/><radialGradient id="Безымянный_градиент_118-38" cx="1.06" cy="769.12" r="1" gradientTransform="matrix(-17.06, 271.73, 276.73, 17.37, -212381.96, -12983.22)" xlink:href="#Безымянный_градиент_118"/><radialGradient id="Безымянный_градиент_118-39" cx="1.04" cy="769.07" r="1" gradientTransform="matrix(-27.21, 433.25, 442.67, 27.8, -340163.43, -20994.05)" xlink:href="#Безымянный_градиент_118"/><radialGradient id="Безымянный_градиент_86-2" cx="1.05" cy="769.1" r="1" gradientTransform="matrix(-20.04, 319.61, 325.6, 20.41, -249886.35, -15366.63)" xlink:href="#Безымянный_градиент_86"/><radialGradient id="Безымянный_градиент_118-40" cx="1.06" cy="769.12" r="1" gradientTransform="matrix(-17.06, 271.73, 276.72, 17.38, -212322.34, -13008.42)" xlink:href="#Безымянный_градиент_118"/><radialGradient id="Безымянный_градиент_118-41" cx="1.06" cy="769.12" r="1" gradientTransform="matrix(-17.04, 271.31, 277.24, 17.41, -212703.86, -13023.72)" xlink:href="#Безымянный_градиент_118"/><radialGradient id="Безымянный_градиент_118-42" cx="1.04" cy="769.07" r="1" gradientTransform="matrix(-27.21, 433.2, 442.63, 27.8, -340111.37, -20970.95)" xlink:href="#Безымянный_градиент_118"/><radialGradient id="Безымянный_градиент_118-43" cx="1.06" cy="769.11" r="1" gradientTransform="matrix(-17.06, 271.69, 277.63, 17.43, -213024.58, -13001.33)" xlink:href="#Безымянный_градиент_118"/><radialGradient id="Безымянный_градиент_118-44" cx="1.06" cy="769.11" r="1" gradientTransform="matrix(-17.06, 271.69, 277.63, 17.43, -213000.8, -13020.5)" xlink:href="#Безымянный_градиент_118"/><radialGradient id="Безымянный_градиент_118-45" cx="1.01" cy="769.02" r="1" gradientTransform="matrix(-82.1, 1307.46, 1336.32, 83.91, -1028647.74, -64105.57)" xlink:href="#Безымянный_градиент_118"/><radialGradient id="Безымянный_градиент_118-46" cx="1.01" cy="769.02" r="1" gradientTransform="matrix(-82.12, 1307.51, 1336.37, 83.93, -1028692.42, -64102.1)" xlink:href="#Безымянный_градиент_118"/><radialGradient id="Безымянный_градиент_118-47" cx="1.01" cy="769.02" r="1" gradientTransform="matrix(-82.1, 1307.41, 1336.35, 83.92, -1028656.65, -64093.14)" xlink:href="#Безымянный_градиент_118"/><radialGradient id="Безымянный_градиент_118-48" cx="1.02" cy="769.04" r="1" gradientTransform="matrix(-51.86, 825.74, 842.8, 52.93, -648439.94, -40325.53)" xlink:href="#Безымянный_градиент_118"/><radialGradient id="Безымянный_градиент_118-49" cx="1.01" cy="769.02" r="1" gradientTransform="matrix(-82.1, 1307.46, 1336.4, 83.92, -1028610, -64093.31)" xlink:href="#Безымянный_градиент_118"/><radialGradient id="Безымянный_градиент_118-50" cx="1.01" cy="769.02" r="1" gradientTransform="matrix(-82.1, 1307.46, 1336.32, 83.91, -1028632.47, -64130.19)" xlink:href="#Безымянный_градиент_118"/><radialGradient id="Безымянный_градиент_118-51" cx="1.02" cy="769.04" r="1" gradientTransform="matrix(-45.44, 723.66, 738.92, 46.4, -568370.83, -35298.64)" xlink:href="#Безымянный_градиент_118"/><radialGradient id="Безымянный_градиент_118-52" cx="1.06" cy="769.11" r="1" gradientTransform="matrix(-17.03, 271.26, 278.06, 17.46, -213366.46, -13084.15)" xlink:href="#Безымянный_градиент_118"/><radialGradient id="Безымянный_градиент_118-53" cx="1.06" cy="769.12" r="1" gradientTransform="matrix(-17.06, 271.68, 276.01, 17.33, -211837.73, -13000.12)" xlink:href="#Безымянный_градиент_118"/><radialGradient id="Безымянный_градиент_118-54" cx="1.04" cy="769.07" r="1" gradientTransform="matrix(-30.03, 478.34, 488.51, 30.67, -375505.13, -23292.86)" xlink:href="#Безымянный_градиент_118"/><radialGradient id="Безымянный_градиент_118-55" cx="1.04" cy="769.07" r="1" gradientTransform="matrix(-27.21, 433.21, 442.62, 27.8, -340194.13, -21087.1)" xlink:href="#Безымянный_градиент_118"/><radialGradient id="Безымянный_градиент_118-56" cx="1.06" cy="769.12" r="1" gradientTransform="matrix(-17.06, 271.73, 276.73, 17.37, -212389.2, -13092.18)" xlink:href="#Безымянный_градиент_118"/><radialGradient id="Безымянный_градиент_118-57" cx="1.04" cy="769.07" r="1" gradientTransform="matrix(-27.21, 433.25, 442.67, 27.8, -340170.65, -21103)" xlink:href="#Безымянный_градиент_118"/><radialGradient id="Безымянный_градиент_118-58" cx="1.06" cy="769.12" r="1" gradientTransform="matrix(-17.06, 271.68, 276.87, 17.39, -212473.12, -13106.17)" xlink:href="#Безымянный_градиент_118"/><radialGradient id="Безымянный_градиент_118-59" cx="1.06" cy="769.12" r="1" gradientTransform="matrix(-17.06, 271.73, 276.72, 17.38, -212329.56, -13117.37)" xlink:href="#Безымянный_градиент_118"/><radialGradient id="Безымянный_градиент_118-60" cx="1.06" cy="769.11" r="1" gradientTransform="matrix(-17.04, 271.31, 278, 17.46, -213291.09, -13167.99)" xlink:href="#Безымянный_градиент_118"/><radialGradient id="Безымянный_градиент_118-61" cx="1.04" cy="769.07" r="1" gradientTransform="matrix(-27.21, 433.2, 442.63, 27.8, -340118.6, -21079.9)" xlink:href="#Безымянный_градиент_118"/><radialGradient id="Безымянный_градиент_118-62" cx="1.06" cy="769.11" r="1" gradientTransform="matrix(-17.06, 271.69, 277.63, 17.43, -213031.8, -13110.28)" xlink:href="#Безымянный_градиент_118"/><radialGradient id="Безымянный_градиент_118-63" cx="1.06" cy="769.12" r="1" gradientTransform="matrix(-17.06, 271.69, 276.78, 17.38, -212351.92, -13090.05)" xlink:href="#Безымянный_градиент_118"/><radialGradient id="Безымянный_градиент_118-64" cx="1.01" cy="769.02" r="1" gradientTransform="matrix(-82.1, 1307.45, 1336.4, 83.92, -1028698.41, -64200.1)" xlink:href="#Безымянный_градиент_118"/><radialGradient id="Безымянный_градиент_118-65" cx="1.01" cy="769.02" r="1" gradientTransform="matrix(-82.11, 1307.5, 1336.27, 83.92, -1028605.1, -64182.5)" xlink:href="#Безымянный_градиент_118"/><radialGradient id="Безымянный_градиент_118-66" cx="1.01" cy="769.02" r="1" gradientTransform="matrix(-82.1, 1307.43, 1336.46, 83.93, -1028730.32, -64189.14)" xlink:href="#Безымянный_градиент_118"/><radialGradient id="Безымянный_градиент_118-67" cx="1.02" cy="769.04" r="1" gradientTransform="matrix(-51.86, 825.74, 842.8, 52.93, -648429.19, -40415.58)" xlink:href="#Безымянный_градиент_118"/><radialGradient id="Безымянный_градиент_118-68" cx="1.01" cy="769.01" r="1" gradientTransform="matrix(-98.09, 1562.06, 3610.04, 226.69, -2780092.7, -174170.57)" xlink:href="#Безымянный_градиент_118"/><radialGradient id="Безымянный_градиент_118-69" cx="1.02" cy="769.04" r="1" gradientTransform="matrix(-45.44, 723.66, 738.92, 46.4, -568358.54, -35388.6)" xlink:href="#Безымянный_градиент_118"/><radialGradient id="Безымянный_градиент_118-70" cx="1.06" cy="769.11" r="1" gradientTransform="matrix(-17.03, 271.27, 278.15, 17.47, -213431, -13178.62)" xlink:href="#Безымянный_градиент_118"/><radialGradient id="Безымянный_градиент_118-71" cx="1.06" cy="769.12" r="1" gradientTransform="matrix(-17.06, 271.68, 275.99, 17.33, -211814.01, -13088.15)" xlink:href="#Безымянный_градиент_118"/></defs><path class="cls-1" d="M1014.3,437.39c-160.78,139.86-45.16,248.44-427.9,220C407.21,644,318.46,507.8,297.91,383.35c-25.48-154.29,72-263.82,340.4-263.82,121.07,0,230.3-36.53,306.56,12.65C1051.17,200.76,1093.39,368.59,1014.3,437.39Z" transform="translate(-294 -106.48)"/><path class="cls-2" d="M425.77,214.39H839.06V627.68H425.77Z" transform="translate(-294 -106.48)"/><path class="cls-3" d="M819.94,442.93,770.4,471.8l.72,1.24,49.54-28.87a2.34,2.34,0,0,0,.05-4l-6.05-3.75a.9.9,0,0,1-.33-.34.87.87,0,0,1-.1-.45.88.88,0,0,1,.46-.76l18.58-10.45a7.26,7.26,0,0,0,1.74.22c2.19,0,4-.9,4-2s-1.77-2-4-2-4,.9-4,2a1.45,1.45,0,0,0,.59,1.06L814,433.6a2.35,2.35,0,0,0-.09,4l6.06,3.75a.91.91,0,0,1,0,1.55Z" transform="translate(-294 -106.48)"/><path class="cls-4" d="M840.24,442.35c2.18,0,4-.9,4-2s-1.77-2-4-2-4,.9-4,2a1.46,1.46,0,0,0,.64,1.1l-60.8,35.37.72,1.24,61.7-35.89A7.55,7.55,0,0,0,840.24,442.35Z" transform="translate(-294 -106.48)"/><path class="cls-5" d="M839.92,382.86l-109,63,.72,1.24,109.95-63.48a7,7,0,0,0,1.7.2c2.18,0,4-.9,4-2s-1.77-2-4-2-4,.9-4,2A1.42,1.42,0,0,0,839.92,382.86Z" transform="translate(-294 -106.48)"/><path class="cls-6" d="M749.08,406l-43.82,26,.73,1.23,43.82-26a3.58,3.58,0,0,0,1.3-1.32,3.76,3.76,0,0,0,.46-1.8,3.62,3.62,0,0,0-.49-1.79,3.58,3.58,0,0,0-1.31-1.31l-5.9-3.4a2.09,2.09,0,0,1-.79-.77,2.22,2.22,0,0,1,0-2.14,2.16,2.16,0,0,1,.76-.8L757,385.63a7.34,7.34,0,0,0,1.6.17c2.19,0,4-.9,4-2s-1.77-2-4-2-4,.9-4,2a1.51,1.51,0,0,0,.73,1.16l-12.31,7.69a3.63,3.63,0,0,0-1.27,1.34,3.54,3.54,0,0,0-.42,1.78,3.58,3.58,0,0,0,1.8,3.06l5.9,3.4a2.15,2.15,0,0,1,1.08,1.86A2.19,2.19,0,0,1,749.08,406Z" transform="translate(-294 -106.48)"/><path class="cls-7" d="M802,491.63l71.14-41.07a6.38,6.38,0,0,1,3.45-.84,6.46,6.46,0,0,1,3.36,1.15l6.51,4.6a7.71,7.71,0,0,0,8.61.23l10-6.3a7.52,7.52,0,0,0,1.38.13c2.19,0,4-.9,4-2s-1.77-2-4-2-4,.9-4,2a1.61,1.61,0,0,0,.88,1.26l-9.06,5.72a6.32,6.32,0,0,1-7-.19l-6.51-4.6a7.81,7.81,0,0,0-8.36-.39L801.3,490.38Z" transform="translate(-294 -106.48)"/><path class="cls-8" d="M526.35,443a.92.92,0,0,1-.33-.32.92.92,0,0,1,.31-1.23l6-3.75a2.29,2.29,0,0,0,.82-.87,2.37,2.37,0,0,0,.28-1.16,2.2,2.2,0,0,0-.33-1.15,2.28,2.28,0,0,0-.85-.84l-17.67-9.93a1.4,1.4,0,0,0,.6-1.06c0-1.11-1.77-2-4-2s-4,.9-4,2,1.77,2,4,2a7.28,7.28,0,0,0,1.74-.21L531.59,435a.9.9,0,0,1,0,1.55l-6,3.75a2.28,2.28,0,0,0-1.11,2,2.33,2.33,0,0,0,.31,1.15,2.36,2.36,0,0,0,.85.84l49.54,28.87.72-1.24Z" transform="translate(-294 -106.48)"/><path class="cls-9" d="M510,440.44c0-1.12-1.77-2-4-2s-4,.9-4,2,1.77,2,4,2a7.39,7.39,0,0,0,1.69-.2l61.7,35.89.72-1.24-60.79-35.36A1.48,1.48,0,0,0,510,440.44Z" transform="translate(-294 -106.48)"/><path class="cls-10" d="M439.81,449.64a7.52,7.52,0,0,0,1.38-.13l10,6.3a7.72,7.72,0,0,0,8.62-.23l6.51-4.6a6.33,6.33,0,0,1,6.81-.31l71.14,41.07.72-1.24-71.14-41.07a7.78,7.78,0,0,0-8.36.38l-6.51,4.6a6.3,6.3,0,0,1-7,.18l-9.06-5.72a1.61,1.61,0,0,0,.88-1.26c0-1.11-1.77-2-4-2s-4,.9-4,2S437.63,449.64,439.81,449.64Z" transform="translate(-294 -106.48)"/><path class="cls-11" d="M503.05,383.9a7.48,7.48,0,0,0,1.7-.2l110,63.48.72-1.24-109-63a1.42,1.42,0,0,0,.63-1.09c0-1.11-1.77-2-4-2s-4,.9-4,2S500.86,383.9,503.05,383.9Z" transform="translate(-294 -106.48)"/><path class="cls-12" d="M596.15,404.2a2.13,2.13,0,0,1,1.08-1.86l5.9-3.4a3.6,3.6,0,0,0,.1-6.18l-12.31-7.69a1.49,1.49,0,0,0,.73-1.16c0-1.12-1.77-2-4-2s-4,.9-4,2,1.77,2,4,2a7.34,7.34,0,0,0,1.6-.17L602.47,394a2.22,2.22,0,0,1,.75.8,2.12,2.12,0,0,1,.26,1.07,2.06,2.06,0,0,1-.29,1.06,2.16,2.16,0,0,1-.78.78l-5.9,3.4a3.61,3.61,0,0,0-1.32,1.31,3.51,3.51,0,0,0-.48,1.79,3.56,3.56,0,0,0,1.77,3.12l43.82,26,.73-1.24-43.82-26A2.17,2.17,0,0,1,596.15,404.2Z" transform="translate(-294 -106.48)"/><path class="cls-13" d="M526.35,574.45l49.54-28.86-.72-1.24-49.54,28.87a2.28,2.28,0,0,0-.85.84,2.36,2.36,0,0,0,.8,3.17l6,3.75a.89.89,0,0,1,.43.78.9.9,0,0,1-.13.45.92.92,0,0,1-.33.32L513,593a7.26,7.26,0,0,0-1.74-.22c-2.18,0-4,.9-4,2s1.77,2,4,2,4-.9,4-2a1.43,1.43,0,0,0-.6-1.06l17.67-9.93a2.34,2.34,0,0,0,.08-4l-6-3.75a.83.83,0,0,1-.43-.78A.84.84,0,0,1,526.35,574.45Z" transform="translate(-294 -106.48)"/><path class="cls-14" d="M506.05,575c-2.19,0-4,.9-4,2s1.77,2,4,2,4-.9,4-2a1.45,1.45,0,0,0-.64-1.1l60.79-35.37-.72-1.24-61.69,35.89A7.55,7.55,0,0,0,506.05,575Z" transform="translate(-294 -106.48)"/><path class="cls-15" d="M506.37,634.51l109-63-.72-1.24-110,63.48a7,7,0,0,0-1.71-.2c-2.19,0-4,.9-4,2s1.77,2,4,2,4-.9,4-2A1.42,1.42,0,0,0,506.37,634.51Z" transform="translate(-294 -106.48)"/><path class="cls-16" d="M597.21,611.41l43.82-26-.73-1.23-43.82,26a3.68,3.68,0,0,0-1.31,1.32,3.63,3.63,0,0,0,1.34,4.9l5.9,3.4a2.16,2.16,0,0,1,.06,3.71l-13.18,8.22a7.34,7.34,0,0,0-1.6-.17c-2.19,0-4,.9-4,2s1.77,2,4,2,4-.9,4-2a1.52,1.52,0,0,0-.73-1.17l12.31-7.69a3.59,3.59,0,0,0,1.7-3.12,3.59,3.59,0,0,0-1.8-3.06l-5.9-3.4a2.19,2.19,0,0,1-.79-.78,2.15,2.15,0,0,1-.29-1.07,2.14,2.14,0,0,1,1.06-1.87Z" transform="translate(-294 -106.48)"/><path class="cls-17" d="M544.26,525.74l-71.14,41.07a6.43,6.43,0,0,1-3.45.84,6.31,6.31,0,0,1-3.36-1.15l-6.51-4.6a7.75,7.75,0,0,0-8.62-.23l-10,6.3a7.16,7.16,0,0,0-1.38-.13c-2.19,0-4,.9-4,2s1.77,2,4,2,4-.9,4-2a1.58,1.58,0,0,0-.88-1.25l9.06-5.72a6.19,6.19,0,0,1,3.53-1,6.34,6.34,0,0,1,3.49,1.16l6.51,4.6a7.78,7.78,0,0,0,8.36.38L545,527Z" transform="translate(-294 -106.48)"/><path class="cls-18" d="M844.19,576.93c0-1.11-1.77-2-4-2a7.39,7.39,0,0,0-1.69.2l-61.7-35.89-.72,1.24,60.8,35.37a1.45,1.45,0,0,0-.64,1.1c0,1.12,1.77,2,4,2S844.19,578,844.19,576.93Z" transform="translate(-294 -106.48)"/><path class="cls-19" d="M831.06,594.65c0,1.11,1.77,2,4,2s4-.9,4-2-1.77-2-4-2a7.28,7.28,0,0,0-1.74.21L814.7,582.4a1,1,0,0,1-.34-.32.89.89,0,0,1-.12-.45.83.83,0,0,1,.43-.78l6.05-3.75a2.3,2.3,0,0,0,1.11-2,2.33,2.33,0,0,0-1.16-2l-49.54-28.87-.72,1.24L820,574.33a.86.86,0,0,1,.44.77.88.88,0,0,1-.42.78l-6.05,3.75a2.34,2.34,0,0,0,.08,4l17.67,9.93A1.41,1.41,0,0,0,831.06,594.65Z" transform="translate(-294 -106.48)"/><path class="cls-20" d="M906.47,567.73a7.52,7.52,0,0,0-1.38.13l-10-6.3a7.71,7.71,0,0,0-8.61.23l-6.51,4.6a6.33,6.33,0,0,1-6.81.31L802,525.63l-.72,1.24,71.14,41.07a7.73,7.73,0,0,0,4.23,1,7.88,7.88,0,0,0,4.13-1.41l6.51-4.6a6.32,6.32,0,0,1,7-.19l9,5.72a1.62,1.62,0,0,0-.87,1.26c0,1.11,1.77,2,4,2s4-.9,4-2S908.66,567.73,906.47,567.73Z" transform="translate(-294 -106.48)"/><path class="cls-21" d="M758.59,631.45a7.34,7.34,0,0,0-1.6.17l-13.18-8.23a2.16,2.16,0,0,1-.76-.8,2.12,2.12,0,0,1-.26-1.07,2.13,2.13,0,0,1,1.08-1.84l5.9-3.41a3.62,3.62,0,0,0,1.8-3.1,3.56,3.56,0,0,0-1.77-3.12l-43.82-26-.73,1.24,43.82,26a2.17,2.17,0,0,1,0,3.74l-5.9,3.4a3.61,3.61,0,0,0-.11,6.18l12.31,7.69a1.49,1.49,0,0,0-.73,1.16c0,1.11,1.77,2,4,2s4-.9,4-2S760.77,631.45,758.59,631.45Z" transform="translate(-294 -106.48)"/><path class="cls-22" d="M843.24,633.47a7.64,7.64,0,0,0-1.71.2L731.58,570.19l-.72,1.24,109,63a1.43,1.43,0,0,0-.63,1.09c0,1.11,1.77,2,4,2s4-.9,4-2S845.43,633.47,843.24,633.47Z" transform="translate(-294 -106.48)"/><path class="cls-23" d="M893.87,265s-79.69-49-245.73-49.74C592.8,215,493.36,229.78,434,258.58c-69.12,33.56-72.12,76.63-72.12,76.63v5.73c3.74,11.41,14.32,38.65,33.94,53.18,25.24,18.7,40.2,26.24,40.2,26.24l8.4-4.74L885.25,267.94Z" transform="translate(-294 -106.48)"/><path class="cls-24" d="M365.61,549.18S396.16,458,614.54,440.49c150.79-12.11,270.72,40.82,270.72,40.82V267.94S815.59,223,649.55,222.26c-55.34-.25-154.78,14.52-214.12,43.32-69.12,33.57-69.32,78.75-69.32,78.75Z" transform="translate(-294 -106.48)"/><g class="cls-25"><path class="cls-26" d="M590.54,263.17V274l-110.8,24-.24-11.13Zm0,16.68v10.83l-110.8,24-.24-11.11Zm0,16.67v10.83l-110.8,24-.24-11.12Zm0,16.68V324l-110.8,24-.24-11.12Zm0,16.68v10.83L540.87,351.9l-.24-11.12Zm0,16.67v10.83l-110.8,24-.24-11.11Zm0,16.68v10.83l-110.8,24L479.5,387Zm0,16.67v10.83l-110.8,24-.24-11.12Zm0,16.68v10.83l-110.8,24-.24-11.11Z" transform="translate(-294 -106.48)"/></g><g class="cls-27"><path class="cls-28" d="M794.84,413.69l41-23.71L877,413.69l-41.63,23.37Z" transform="translate(-294 -106.48)"/><path class="cls-29" d="M794.84,399.58l41-23.7L877,399.58,835.33,423Z" transform="translate(-294 -106.48)"/><path class="cls-30" d="M794.84,381.88l41-23.7L877,381.88l-41.63,23.38Z" transform="translate(-294 -106.48)"/><path class="cls-31" d="M794.84,366.6l41-23.7L877,366.6,835.33,390Z" transform="translate(-294 -106.48)"/><path class="cls-32" d="M794.84,351.33l41-23.71L877,351.33,835.33,374.7Z" transform="translate(-294 -106.48)"/><path class="cls-33" d="M794.84,336.9l41-23.71L877,336.9l-41.63,23.37Z" transform="translate(-294 -106.48)"/><path class="cls-34" d="M794.84,322.47l41-23.7L877,322.47l-41.63,23.38Z" transform="translate(-294 -106.48)"/><path class="cls-33" d="M794.84,308.05l41-23.71L877,308.05l-41.63,23.37Z" transform="translate(-294 -106.48)"/></g><g class="cls-35"><path class="cls-26" d="M720,238.81v6.67l68.22,12.28.15-6.85Zm0,10.27v6.66L788.17,268l.15-6.85Zm0,10.26V266l68.22,12.28.15-6.85Zm0,10.27v6.67l68.22,12.28.15-6.85Zm0,10.27v6.66l30.59,5.77.14-6.85Zm0,10.26v6.67l68.22,12.29.15-6.85Zm0,10.27v6.67l68.22,12.28.15-6.85Zm0,10.27v6.66l68.22,12.29.15-6.85Zm0,10.26v6.67l68.22,12.29.15-6.85Z" transform="translate(-294 -106.48)"/></g><g class="cls-35"><path class="cls-26" d="M720,336.42v6.67l68.22,12.29.15-6.85Zm0,10.27v6.67l68.22,12.28.15-6.85ZM720,357v6.66l68.22,12.29.15-6.85Zm0,10.26v6.67l68.22,12.29.15-6.85Zm0,10.27v6.67l30.59,5.76.14-6.85Zm0,10.27v6.66l68.22,12.29.15-6.85ZM720,398v6.67L788.17,417l.15-6.85Zm0,10.27V415l68.22,12.28.15-6.85Zm0,10.27v6.66l68.22,12.29.15-6.85Z" transform="translate(-294 -106.48)"/></g><path class="cls-36" d="M408,377.42c12.53,0,22.69-17.06,22.69-38.1s-10.16-38.1-22.69-38.1-22.69,17.06-22.69,38.1S395.47,377.42,408,377.42Z" transform="translate(-294 -106.48)"/><path class="cls-37" d="M411.44,465c12.53,0,22.69-17.06,22.69-38.1s-10.16-38.1-22.69-38.1-22.69,17.06-22.69,38.1S398.9,465,411.44,465Z" transform="translate(-294 -106.48)"/><path class="cls-33" d="M628.33,376.85l-.77,36.1,15.29-.8.78-36.07Z" transform="translate(-294 -106.48)"/><path class="cls-34" d="M614.09,359.61l14.24,17.24-.77,36.1-14.88-18.47Z" transform="translate(-294 -106.48)"/><path class="cls-38" d="M614.09,359.61l15-.89,14.51,17.36-15.3.77Z" transform="translate(-294 -106.48)"/><path class="cls-30" d="M660.37,343.91l-1.45,67.24,15.29-.79,1.45-67.22Z" transform="translate(-294 -106.48)"/><path class="cls-31" d="M646.12,326.67l14.25,17.24-1.45,67.24L644,392.69Z" transform="translate(-294 -106.48)"/><path class="cls-32" d="M646.12,326.67l15-.89,14.5,17.36-15.29.77Z" transform="translate(-294 -106.48)"/><path class="cls-29" d="M692.4,299.42,690,411.23l15.3-.79,2.4-111.79Z" transform="translate(-294 -106.48)"/><path class="cls-28" d="M678.16,282.18l14.24,17.24L690,411.23l-14.88-18.47Z" transform="translate(-294 -106.48)"/><path class="cls-39" d="M678.16,282.18l15-.89,14.51,17.36-15.3.77Z" transform="translate(-294 -106.48)"/><path class="cls-40" d="M435.54,628.26l.49-207.9s-19-6-46.08-31.05-27.55-56.6-27.55-56.6l-2,209.86s.94,23.23,22.54,54.09c12.42,17.74,33.62,28.69,44.94,33.57Z" transform="translate(-294 -106.48)"/><g class="cls-41"><path class="cls-26" d="M367.17,399.29V406l50.66,37.21.11-6.79Zm0,10.26v6.67l50.66,37.21.11-6.8Zm0,10.27v6.67l50.66,37.21.11-6.8Zm0,10.27v6.66L417.83,474l.11-6.79Zm0,10.26V447L389.88,464l.11-6.8Zm0,10.27v6.67l50.66,37.21.11-6.8Zm0,10.27v6.66l50.66,37.21.11-6.79Zm0,10.26v6.67L417.83,515l.11-6.8Zm0,10.27v6.67l50.66,37.21.11-6.8Zm0,30.28v6.67l50.66,37.21.11-6.8Zm0,10.27v6.66l50.66,37.21.11-6.79Zm0,10.26v6.67l50.66,37.21.11-6.8Zm0,10.27v6.67l50.66,37.21.11-6.8Z" transform="translate(-294 -106.48)"/></g><path class="cls-42" d="M362.4,332.71l-.26,27.43c9.89,21.66,31,52.8,73.87,67.09l0-6.87s-19-6-46.08-31.05S362.4,332.71,362.4,332.71Z" transform="translate(-294 -106.48)"/><path class="cls-43" d="M436,420.36l-7.59,4.48V630l7.62-1.52Z" transform="translate(-294 -106.48)"/><path class="cls-44" d="M885.25,267.94V481.31l8.62-4.53V265Z" transform="translate(-294 -106.48)"/><path class="cls-45" d="M966.94,262.34a5.71,5.71,0,1,0-5.71-5.71A5.71,5.71,0,0,0,966.94,262.34Z" transform="translate(-294 -106.48)"/><path class="cls-45" d="M454.32,221.24a5.71,5.71,0,1,0-5.71-5.71A5.71,5.71,0,0,0,454.32,221.24Z" transform="translate(-294 -106.48)"/><path class="cls-46" d="M848.41,185a35,35,0,1,0,.14-49.52A35,35,0,0,0,848.41,185Z" transform="translate(-294 -106.48)"/><path class="cls-47" d="M542.23,171a12.56,12.56,0,1,0-12.56-12.56A12.56,12.56,0,0,0,542.23,171Z" transform="translate(-294 -106.48)"/><path class="cls-48" d="M340.59,294.48a9.42,9.42,0,1,0-9.42-9.42A9.42,9.42,0,0,0,340.59,294.48Z" transform="translate(-294 -106.48)"/><path class="cls-49" d="M705.49,171a5.71,5.71,0,1,0-5.71-5.71A5.71,5.71,0,0,0,705.49,171Z" transform="translate(-294 -106.48)"/><path class="cls-50" d="M621,162.1l1.2,2.44,2.69.39L623,166.82l.46,2.68-2.4-1.26-2.4,1.26.45-2.68-1.94-1.89,2.69-.39Z" transform="translate(-294 -106.48)"/><path class="cls-51" d="M378.27,224.11l1.2,2.44,2.69.39-2,1.9.46,2.67-2.4-1.26-2.41,1.26.46-2.67-1.94-1.9,2.69-.39Z" transform="translate(-294 -106.48)"/><path class="cls-50" d="M335.45,369.69l1.2,2.44,2.69.39-1.94,1.9.45,2.67-2.4-1.26-2.4,1.26.46-2.67-1.95-1.9,2.69-.39Zm684.39-49.22,1.2,2.44,2.69.39-1.94,1.9.45,2.67-2.4-1.26-2.4,1.26.45-2.67-1.94-1.9,2.69-.39ZM982.12,190.25l1.2,2.44,2.69.39-1.94,1.9.46,2.67-2.41-1.26-2.4,1.26.46-2.67-1.95-1.9,2.69-.39Z" transform="translate(-294 -106.48)"/><path class="cls-29" d="M922.78,455.26v10.41L941,476.4V465.67Z" transform="translate(-294 -106.48)"/><path class="cls-39" d="M922.78,455.26,941,444.53l18.39,10.62L941,465.67Z" transform="translate(-294 -106.48)"/><path class="cls-28" d="M959.39,455.15v10.52L941,476.4V465.67Z" transform="translate(-294 -106.48)"/><path class="cls-29" d="M895.28,471.2v10.4l18.21,10.73V481.6Z" transform="translate(-294 -106.48)"/><path class="cls-39" d="M895.28,471.2l18.21-10.73,18.4,10.62-18.4,10.51Z" transform="translate(-294 -106.48)"/><path class="cls-28" d="M931.89,471.09V481.6l-18.4,10.73V481.6Z" transform="translate(-294 -106.48)"/><path class="cls-29" d="M950.34,471.2v10.4l18.21,10.73V481.6Z" transform="translate(-294 -106.48)"/><path class="cls-39" d="M950.34,471.2l18.21-10.73L987,471.09l-18.4,10.51Z" transform="translate(-294 -106.48)"/><path class="cls-28" d="M987,471.09V481.6l-18.4,10.73V481.6Z" transform="translate(-294 -106.48)"/><path class="cls-29" d="M922.83,487.13v10.41L941,508.27V497.54Z" transform="translate(-294 -106.48)"/><path class="cls-39" d="M922.83,487.13,941,476.4,959.44,487,941,497.54Z" transform="translate(-294 -106.48)"/><path class="cls-28" d="M959.44,487v10.52L941,508.27V497.54Z" transform="translate(-294 -106.48)"/><path class="cls-52" d="M896.28,468.29l-.93-308.36s27.57,4.69,36,8.56c16.13,7.45,57.37,47.09,57.37,47.09l-1,252.71L942,494.69Z" transform="translate(-294 -106.48)"/><path class="cls-29" d="M459.43,608.81v10.41L477.64,630V619.22Z" transform="translate(-294 -106.48)"/><path class="cls-39" d="M459.43,608.81l18.21-10.73L496,608.71l-18.4,10.51Z" transform="translate(-294 -106.48)"/><path class="cls-28" d="M496,608.71v10.51L477.64,630V619.22Z" transform="translate(-294 -106.48)"/><path class="cls-29" d="M431.92,624.75v10.4l18.21,10.74V635.15Z" transform="translate(-294 -106.48)"/><path class="cls-39" d="M431.92,624.75,450.13,614l18.4,10.62-18.4,10.51Z" transform="translate(-294 -106.48)"/><path class="cls-28" d="M468.53,624.64v10.51l-18.4,10.74V635.15Z" transform="translate(-294 -106.48)"/><path class="cls-29" d="M487,624.75v10.4l18.21,10.74V635.15Z" transform="translate(-294 -106.48)"/><path class="cls-39" d="M487,624.75,505.19,614l18.4,10.62-18.4,10.51Z" transform="translate(-294 -106.48)"/><path class="cls-28" d="M523.59,624.64v10.51l-18.4,10.74V635.15Z" transform="translate(-294 -106.48)"/><path class="cls-29" d="M459.47,640.68v10.41l18.21,10.73V651.09Z" transform="translate(-294 -106.48)"/><path class="cls-39" d="M459.47,640.68,477.68,630l18.4,10.62-18.4,10.52Z" transform="translate(-294 -106.48)"/><path class="cls-28" d="M496.08,640.57v10.52l-18.4,10.73V651.09Z" transform="translate(-294 -106.48)"/><path class="cls-53" d="M431.92,624.84,431,154.06s26.95-7.37,36-9.42c37.61-8.56,57.37-12.84,57.37-12.84l-1,493.05-45.72,26.4Z" transform="translate(-294 -106.48)"/><g class="cls-54"><path class="cls-55" d="M479.17,565.33a5.7,5.7,0,1,1,6-5.33A5.68,5.68,0,0,1,479.17,565.33Z" transform="translate(-294 -106.48)"/><path class="cls-56" d="M479.89,599.72a5.16,5.16,0,1,1,5.41-4.83A5.15,5.15,0,0,1,479.89,599.72Z" transform="translate(-294 -106.48)"/><path class="cls-57" d="M467.91,587.78a3.23,3.23,0,1,1,3.39-3A3.22,3.22,0,0,1,467.91,587.78Z" transform="translate(-294 -106.48)"/><path class="cls-58" d="M462.43,541.09a5.16,5.16,0,1,1,5.41-4.83A5.15,5.15,0,0,1,462.43,541.09Z" transform="translate(-294 -106.48)"/><path class="cls-59" d="M461.15,561.64a3.23,3.23,0,1,1,3.4-3A3.21,3.21,0,0,1,461.15,561.64Z" transform="translate(-294 -106.48)"/><path class="cls-60" d="M440.35,537.56a3.22,3.22,0,0,1-3-3.43,3.18,3.18,0,0,1,.31-1.21,3.4,3.4,0,0,1,.76-1,3.17,3.17,0,0,1,1.08-.63,3.11,3.11,0,0,1,1.25-.17,3.23,3.23,0,0,1-.4,6.45Z" transform="translate(-294 -106.48)"/><path class="cls-61" d="M451.12,513.17a3.23,3.23,0,1,1,3.39-3,3.3,3.3,0,0,1-.32,1.22,3.21,3.21,0,0,1-.75,1,3.26,3.26,0,0,1-1.08.63A3.08,3.08,0,0,1,451.12,513.17Z" transform="translate(-294 -106.48)"/><path class="cls-62" d="M482.47,522.38a5.16,5.16,0,1,1,5.41-4.83A5.15,5.15,0,0,1,482.47,522.38Z" transform="translate(-294 -106.48)"/><path class="cls-63" d="M491.29,534.53a3.24,3.24,0,1,1,3.4-3A3.22,3.22,0,0,1,491.29,534.53Z" transform="translate(-294 -106.48)"/><path class="cls-64" d="M470.49,510.45a3.24,3.24,0,1,1,3.39-3A3.23,3.23,0,0,1,470.49,510.45Z" transform="translate(-294 -106.48)"/><path class="cls-65" d="M489.42,600.31a15.58,15.58,0,1,1,16.34-14.57A15.5,15.5,0,0,1,489.42,600.31Z" transform="translate(-294 -106.48)"/><path class="cls-66" d="M506.56,606.14a15.58,15.58,0,1,1,16.34-14.57A15.52,15.52,0,0,1,506.56,606.14Z" transform="translate(-294 -106.48)"/><path class="cls-67" d="M504.39,585.36a15.58,15.58,0,1,1,16.34-14.57A15.52,15.52,0,0,1,504.39,585.36Z" transform="translate(-294 -106.48)"/><path class="cls-68" d="M469.05,560.57a9.83,9.83,0,1,1,10.32-9.2A9.8,9.8,0,0,1,469.05,560.57Z" transform="translate(-294 -106.48)"/><path class="cls-69" d="M501.37,500.27a15.58,15.58,0,1,1,16.34-14.57A15.52,15.52,0,0,1,501.37,500.27Z" transform="translate(-294 -106.48)"/><path class="cls-70" d="M463.63,586.62A15.58,15.58,0,1,1,480,572.05,15.52,15.52,0,0,1,463.63,586.62Z" transform="translate(-294 -106.48)"/><path class="cls-71" d="M477.52,505.26a8.62,8.62,0,1,1,9-8.06A8.59,8.59,0,0,1,477.52,505.26Z" transform="translate(-294 -106.48)"/><path class="cls-72" d="M466.09,515.67a3.24,3.24,0,1,1,3.39-3A3.22,3.22,0,0,1,466.09,515.67Z" transform="translate(-294 -106.48)"/><path class="cls-73" d="M453,563a3.23,3.23,0,1,1,3.4-3,3.39,3.39,0,0,1-.32,1.21,3.21,3.21,0,0,1-1.84,1.63A3.08,3.08,0,0,1,453,563Z" transform="translate(-294 -106.48)"/></g><path class="cls-74" d="M470.17,461.56a5.7,5.7,0,1,1,6-5.33A5.68,5.68,0,0,1,470.17,461.56Z" transform="translate(-294 -106.48)"/><path class="cls-75" d="M470.89,496a5.16,5.16,0,1,1,5.41-4.83A5.15,5.15,0,0,1,470.89,496Z" transform="translate(-294 -106.48)"/><path class="cls-76" d="M458.91,484a3.23,3.23,0,1,1,3.39-3A3.22,3.22,0,0,1,458.91,484Z" transform="translate(-294 -106.48)"/><path class="cls-77" d="M453.43,437.31a5.16,5.16,0,1,1,5.41-4.83A5.15,5.15,0,0,1,453.43,437.31Z" transform="translate(-294 -106.48)"/><path class="cls-78" d="M452.15,457.86a3.23,3.23,0,1,1,3.4-3A3.22,3.22,0,0,1,452.15,457.86Z" transform="translate(-294 -106.48)"/><path class="cls-79" d="M431.35,433.78a3.22,3.22,0,0,1-3-3.43,3.18,3.18,0,0,1,.31-1.21,3.4,3.4,0,0,1,.76-1,3.17,3.17,0,0,1,1.08-.63,3.11,3.11,0,0,1,1.25-.17,3.23,3.23,0,0,1-.4,6.45Z" transform="translate(-294 -106.48)"/><path class="cls-80" d="M442.12,409.39a3.24,3.24,0,1,1,3.39-3,3.43,3.43,0,0,1-.31,1.22,3.24,3.24,0,0,1-.76,1,3.19,3.19,0,0,1-1.08.64A3.08,3.08,0,0,1,442.12,409.39Z" transform="translate(-294 -106.48)"/><path class="cls-81" d="M473.47,418.61a5.16,5.16,0,1,1,5.41-4.83A5.15,5.15,0,0,1,473.47,418.61Z" transform="translate(-294 -106.48)"/><path class="cls-82" d="M482.29,430.75a3.24,3.24,0,1,1,3.4-3A3.22,3.22,0,0,1,482.29,430.75Z" transform="translate(-294 -106.48)"/><path class="cls-83" d="M461.49,406.67a3.23,3.23,0,1,1,3.39-3A3.23,3.23,0,0,1,461.49,406.67Z" transform="translate(-294 -106.48)"/><path class="cls-84" d="M481.42,496.53A15.58,15.58,0,1,1,497.76,482,15.5,15.5,0,0,1,481.42,496.53Z" transform="translate(-294 -106.48)"/><path class="cls-85" d="M498.56,502.37A15.58,15.58,0,1,1,514.9,487.8,15.52,15.52,0,0,1,498.56,502.37Z" transform="translate(-294 -106.48)"/><path class="cls-86" d="M496.39,481.58A15.58,15.58,0,1,1,512.73,467,15.52,15.52,0,0,1,496.39,481.58Z" transform="translate(-294 -106.48)"/><path class="cls-87" d="M459.84,456.79a9.83,9.83,0,1,1,10.32-9.2A9.8,9.8,0,0,1,459.84,456.79Z" transform="translate(-294 -106.48)"/><path class="cls-88" d="M447.37,437.27a15.58,15.58,0,1,1,16.34-14.57A15.52,15.52,0,0,1,447.37,437.27Zm6,53a15.58,15.58,0,1,1,16.34-14.57A15.52,15.52,0,0,1,453.37,490.27Z" transform="translate(-294 -106.48)"/><path class="cls-89" d="M468.31,401.49a8.62,8.62,0,1,1,9-8.06A8.59,8.59,0,0,1,468.31,401.49Z" transform="translate(-294 -106.48)"/><path class="cls-90" d="M456.88,411.89a3.24,3.24,0,1,1,3.39-3A3.22,3.22,0,0,1,456.88,411.89Z" transform="translate(-294 -106.48)"/><path class="cls-91" d="M445,459.2a3.23,3.23,0,1,1,3.4-3,3.21,3.21,0,0,1-3.4,3Z" transform="translate(-294 -106.48)"/><path class="cls-92" d="M461.2,567.69l37.62-49.37-36-45.89L493,411.86" transform="translate(-294 -106.48)"/><path class="cls-33" d="M457.45,549.34l-8.52,11.5L454.55,574l8.56-11.55Z" transform="translate(-294 -106.48)"/><path class="cls-34" d="M477.41,564l-14.3-1.63L454.55,574l14.35,1.78Z" transform="translate(-294 -106.48)"/><path class="cls-38" d="M471.68,550.85l-14.23-1.51,5.66,13.07,14.3,1.63Z" transform="translate(-294 -106.48)"/><path class="cls-33" d="M484.79,520.73l9.15,11L508,529.38l-9.2-11.06Z" transform="translate(-294 -106.48)"/><path class="cls-34" d="M503.81,504.83l-5,13.49,9.2,11.06,5.13-13.52Z" transform="translate(-294 -106.48)"/><path class="cls-38" d="M489.63,507.26l-4.84,13.47,14-2.41,5-13.49Z" transform="translate(-294 -106.48)"/><path class="cls-93" d="M468.31,459.3l-14.2,1.81-5.58,13.14,14.27-1.82Z" transform="translate(-294 -106.48)"/><path class="cls-31" d="M471.51,483.88l-8.71-11.45-14.27,1.82,8.65,11.58Z" transform="translate(-294 -106.48)"/><path class="cls-94" d="M477.07,470.62l-8.76-11.32-5.51,13.13,8.71,11.45Z" transform="translate(-294 -106.48)"/><path class="cls-39" d="M498.52,398.73l-14.2,1.81-5.58,13.14L493,411.86Z" transform="translate(-294 -106.48)"/><path class="cls-28" d="M501.72,423.32,493,411.86l-14.27,1.82,8.65,11.59Z" transform="translate(-294 -106.48)"/><path class="cls-29" d="M507.28,410.05l-8.76-11.32L493,411.86l8.71,11.46Z" transform="translate(-294 -106.48)"/><path class="cls-95" d="M566.84,353a14,14,0,1,1-14-14A14,14,0,0,1,566.84,353Z" transform="translate(-294 -106.48)"/><path class="cls-96" d="M562.56,353a9.68,9.68,0,1,1-9.68-9.68A9.68,9.68,0,0,1,562.56,353Z" transform="translate(-294 -106.48)"/><path class="cls-97" d="M732.49,453.2s33.3,24.74,42.18,28.23,12.05,2.85,23.15,5.71,34.57,6.34,47.57,10.78a154.45,154.45,0,0,1,23.15,10.15s-5.4-9.2-4.44-13a27.67,27.67,0,0,0,.95-6s-6-.63-14.27-6-23.47-18.08-41.86-21.88-25.69-2.54-25.69-2.54l-37.1-36.79Z" transform="translate(-294 -106.48)"/><path class="cls-32" d="M865.05,489l7.19-2.85A9.65,9.65,0,0,1,883,487c5.29,4.23,9.09,13.32,11.21,15.43s8.24,3.38,11.63,11.21a24.33,24.33,0,0,1-.42,19.87c-2.11,4.23-5.07,4.86-6.34,4.44S885.57,522.12,882,519.16l-13.43-11.1s-5.81-8.14-4.44-13S865.05,489,865.05,489Z" transform="translate(-294 -106.48)"/><path d="M894.23,502.46c-2.11-2.11-5.92-11.21-11.21-15.43a9.65,9.65,0,0,0-10.78-.85l-1.12.45a10,10,0,0,0-2.26,7.16c.63,4.86,4.86,9.73,9.73,14.38s11,10.78,13.11,14.59c1.34,2.41,3.94,9.13,6.27,14.23a4.91,4.91,0,0,0,1.13,1c1.27.42,4.23-.21,6.34-4.44a24.29,24.29,0,0,0,.42-19.87C902.48,505.84,896.35,504.57,894.23,502.46Z" transform="translate(-294 -106.48)"/><path class="cls-98" d="M733.55,456.37l15.22,23.47s19.66,33.41,19.45,37-7.61,13.32-14.38,9.94-11.42-10.36-16.07-15.22-35.94-34.46-35.94-34.46Z" transform="translate(-294 -106.48)"/><path class="cls-32" d="M776.47,441.57s-4-6-4.81-7.4-4.28-9,.79-13.16,11.89-3,16.65-2.38,6.66,2.7,8.09,1.9,3.81-4.76,8.25-5.39,15.06,1.11,20.93,5.87-1,10.62-9.36,12.37-16,7.45-19.35,9.83-6.61,4.28-6.61,4.28-1.32-5.71-5-6.82S776.47,441.57,776.47,441.57Z" transform="translate(-294 -106.48)"/><path d="M826.36,421c-5.87-4.76-16.49-6.5-20.93-5.87s-6.82,4.6-8.25,5.39-3.33-1.27-8.09-1.9-11.58-1.74-16.65,2.38-1.59,11.73-.79,13.16l.32.55a43.86,43.86,0,0,0,11.25,1c5.39-.48,8.56-3.17,14.91-2.85,5.85.29,24.53-.1,30.36-7.38C828.76,424,828.14,422.46,826.36,421Z" transform="translate(-294 -106.48)"/><path class="cls-99" d="M590.63,324s.56,5.94,1.73,8.53,4.92,6.88,7.1,9.79,2.09,5.32,5.41,3.93,10.53-6.64,10.53-6.64Z" transform="translate(-294 -106.48)"/><path class="cls-100" d="M641.34,350.78s-4.61,22.07-7.47,31.64-7.62,18.76-10.9,19-10.94-.27-20.86-8.65-21.54-15.07-24.17-15.66-8.46-.53-11.13-4.34-7.33-9.45-6.83-11.11,6.88-5.12,8.77-4.75,9.84,4,12.2,7.46,4.16,6.86,10.16,10.26,11.85,3.95,18.23,6.06l6.38,2.11s4.33-25.16,7.29-29.69,6.34-9.13,12.82-8S641.34,350.78,641.34,350.78Z" transform="translate(-294 -106.48)"/><path class="cls-101" d="M666.53,426.56a98.11,98.11,0,0,0,8.88,24.1c6.66,12.69,10.15,21.25,12.37,25.37s5.71,3.49,12.37,1.9,7.61-3.49,12.37-5.07,16.81-5.71,20-13.64,2.54-12.05,6-14.91,6.34-8.56,7.61-15.86,2.54-14.27,1.9-19-5.07-8.56-5.07-8.56-6,1.59-15.86-3.81S711.25,392,704,390.71a97,97,0,0,0-14.59-1.27" transform="translate(-294 -106.48)"/><path class="cls-102" d="M620.44,351.5s-3.59,16.7-2.11,22.41,4.23,17.34,9.94,19a24.92,24.92,0,0,0,11.63.21s12.47,12.9,17.76,20.93,8.88,12.47,8.88,12.47,7,1.9,14-9.09,11.21-27.7,7.4-30.87-5.07-3.17-7.19-5.29-34-27.27-34-27.27Z" transform="translate(-294 -106.48)"/><path class="cls-103" d="M631.84,360s24,6.34,34.36,10,20.19,9.46,20.25,13.08-.93,12-10.72,22.44-17.81,22.82-18.61,25.68-1.07,9.27-5.41,12-11,4.38-12.79,3.74-5-4.72-4.53-6.78,4.91-10.59,8.91-13,7.78-4.18,11.86-10.58,5-12.8,7.71-19.7l2.69-6.9s-27.42-6.21-32.22-9.72-9.67-7.5-8.05-14.55S631.84,360,631.84,360Z" transform="translate(-294 -106.48)"/><path class="cls-104" d="M752.58,526.14s-8.46-12-7.82-24.74,2.11-20.3,6.13-26.22,14.17-15.22,19.66-23,5.92-10.57,5.92-10.57,7.19-2.33,11,0a6.9,6.9,0,0,1,3.59,5.92s-15,35.31-18.18,45.88-3.6,20.93-4.65,24.31S761.88,530.79,752.58,526.14Z" transform="translate(-294 -106.48)"/><path class="cls-50" d="M581.33,377.93s-3.39-.84-6.34-1.27a31.57,31.57,0,0,1-7.4-2.11c-2.11-.85-3.38,4.65-5.07,5.07s-1.27-3.59-.85-5.07,3.81-5.29,5.92-8.25-1.06-5.92-1.06-5.92-11.42-5.07-12.47-7.19,1.9-1.9,8.88.63a109.12,109.12,0,0,1,11.84,5.07s4.31,2.25,6.17,5.46" transform="translate(-294 -106.48)"/><path class="cls-105" d="M590.93,280.76s12.53-11.89,31.74-3.58c16.09,7,16.27,16.91,26.26,23.85,6.88,4.78,27.38,15.78,48.38,11.45s41.76,2.59,57.2,22.12,20.21,30.69,20.21,30.69-25.32-3-42.36,10.86-54.86,13.55-75.94,5.54-34.64-23-38.55-29.52-6.7-12.44-13.47-15.25-24.83-17.18-24.32-30.33S583.2,287.3,590.93,280.76Z" transform="translate(-294 -106.48)"/><path class="cls-106" d="M697.31,312.49c-21,4.32-41.5-6.68-48.38-11.45-10-6.94-10.18-16.89-26.26-23.85-19.08-8.25-31.56,3.41-31.73,3.57,19.23-7,28-.59,37.5,11.26,16,20,31.95,39.19,55.37,37.68,17.7-1.14,38.25-5.71,52.52,4s19.41,17.7,19.41,17.7-20.55-10.85-42.81-9.7S669.55,340,654.7,330.85s-24.55-24-24.55-24,6.43,40.58,59.37,41.67c55.37,1.14,50.23,5.14,64.12,18a72.2,72.2,0,0,1,21.09-1.24s-4.78-11.16-20.21-30.69S718.31,308.16,697.31,312.49Z" transform="translate(-294 -106.48)"/><g class="cls-54"><path class="cls-107" d="M944.17,416.33a5.7,5.7,0,1,1,6-5.33A5.68,5.68,0,0,1,944.17,416.33Z" transform="translate(-294 -106.48)"/><path class="cls-108" d="M944.89,450.72a5.16,5.16,0,1,1,5.41-4.83A5.15,5.15,0,0,1,944.89,450.72Z" transform="translate(-294 -106.48)"/><path class="cls-109" d="M932.91,438.78a3.23,3.23,0,1,1,3.39-3A3.22,3.22,0,0,1,932.91,438.78Z" transform="translate(-294 -106.48)"/><path class="cls-110" d="M927.43,392.09a5.16,5.16,0,1,1,5.41-4.83A5.16,5.16,0,0,1,927.43,392.09Z" transform="translate(-294 -106.48)"/><path class="cls-111" d="M926.14,412.64a3.23,3.23,0,1,1,3.41-3A3.21,3.21,0,0,1,926.14,412.64Z" transform="translate(-294 -106.48)"/><path class="cls-112" d="M905.35,388.56a3.22,3.22,0,0,1-3-3.43,3.18,3.18,0,0,1,.31-1.21,3.4,3.4,0,0,1,.76-1,3.17,3.17,0,0,1,1.08-.63,3.11,3.11,0,0,1,1.25-.17,3.23,3.23,0,0,1-.4,6.45Z" transform="translate(-294 -106.48)"/><path class="cls-113" d="M916.12,364.17a3.23,3.23,0,1,1,3.39-3,3.3,3.3,0,0,1-.32,1.22,3.21,3.21,0,0,1-.75,1,3.26,3.26,0,0,1-1.08.63A3.08,3.08,0,0,1,916.12,364.17Z" transform="translate(-294 -106.48)"/><path class="cls-114" d="M947.47,373.38a5.16,5.16,0,1,1,5.41-4.83A5.15,5.15,0,0,1,947.47,373.38Z" transform="translate(-294 -106.48)"/><path class="cls-115" d="M956.29,385.53a3.24,3.24,0,1,1,3.4-3A3.22,3.22,0,0,1,956.29,385.53Z" transform="translate(-294 -106.48)"/><path class="cls-116" d="M935.49,361.45a3.24,3.24,0,1,1,3.39-3A3.23,3.23,0,0,1,935.49,361.45Z" transform="translate(-294 -106.48)"/><path class="cls-117" d="M954.42,451.31a15.58,15.58,0,1,1,16.34-14.57A15.5,15.5,0,0,1,954.42,451.31Z" transform="translate(-294 -106.48)"/><path class="cls-118" d="M971.56,457.14a15.58,15.58,0,1,1,16.33-14.57A15.53,15.53,0,0,1,971.56,457.14Z" transform="translate(-294 -106.48)"/><path class="cls-119" d="M969.39,436.36a15.58,15.58,0,1,1,16.34-14.57A15.52,15.52,0,0,1,969.39,436.36Z" transform="translate(-294 -106.48)"/><path class="cls-120" d="M934.05,411.57a9.83,9.83,0,1,1,10.32-9.2A9.8,9.8,0,0,1,934.05,411.57Z" transform="translate(-294 -106.48)"/><path class="cls-121" d="M966.37,351.27a15.58,15.58,0,1,1,16.34-14.57A15.52,15.52,0,0,1,966.37,351.27Z" transform="translate(-294 -106.48)"/><path class="cls-122" d="M928.63,437.62A15.58,15.58,0,1,1,945,423.05,15.52,15.52,0,0,1,928.63,437.62Z" transform="translate(-294 -106.48)"/><path class="cls-123" d="M942.52,356.26a8.62,8.62,0,1,1,9-8.06A8.59,8.59,0,0,1,942.52,356.26Z" transform="translate(-294 -106.48)"/><path class="cls-124" d="M931.09,366.67a3.24,3.24,0,1,1,3.39-3A3.22,3.22,0,0,1,931.09,366.67Z" transform="translate(-294 -106.48)"/><path class="cls-125" d="M918,414a3.23,3.23,0,1,1,3.4-3,3.22,3.22,0,0,1-1.08,2.21,3.26,3.26,0,0,1-1.08.63A3.08,3.08,0,0,1,918,414Z" transform="translate(-294 -106.48)"/></g><path class="cls-126" d="M936.17,306.56a5.7,5.7,0,1,1,6-5.33A5.68,5.68,0,0,1,936.17,306.56Z" transform="translate(-294 -106.48)"/><path class="cls-127" d="M936.89,341a5.16,5.16,0,1,1,5.41-4.83A5.15,5.15,0,0,1,936.89,341Z" transform="translate(-294 -106.48)"/><path class="cls-128" d="M924.91,329a3.23,3.23,0,1,1,3.39-3A3.22,3.22,0,0,1,924.91,329Z" transform="translate(-294 -106.48)"/><path class="cls-129" d="M919.43,282.31a5.16,5.16,0,1,1,5.41-4.83A5.16,5.16,0,0,1,919.43,282.31Z" transform="translate(-294 -106.48)"/><path class="cls-130" d="M918.14,302.86a3.23,3.23,0,1,1,3.41-3A3.22,3.22,0,0,1,918.14,302.86Z" transform="translate(-294 -106.48)"/><path class="cls-131" d="M897.35,278.78a3.22,3.22,0,0,1-3-3.43,3.18,3.18,0,0,1,.31-1.21,3.4,3.4,0,0,1,.76-1,3.17,3.17,0,0,1,1.08-.63,3.11,3.11,0,0,1,1.25-.17,3.23,3.23,0,0,1-.4,6.45Z" transform="translate(-294 -106.48)"/><path class="cls-132" d="M908.12,254.39a3.24,3.24,0,1,1,3.39-3,3.43,3.43,0,0,1-.31,1.22,3.24,3.24,0,0,1-.76,1,3.19,3.19,0,0,1-1.08.64A3.08,3.08,0,0,1,908.12,254.39Z" transform="translate(-294 -106.48)"/><path class="cls-133" d="M939.47,263.61a5.16,5.16,0,1,1,5.41-4.83A5.15,5.15,0,0,1,939.47,263.61Z" transform="translate(-294 -106.48)"/><path class="cls-134" d="M948.29,275.75a3.24,3.24,0,1,1,3.4-3A3.22,3.22,0,0,1,948.29,275.75Z" transform="translate(-294 -106.48)"/><path class="cls-135" d="M927.49,251.67a3.23,3.23,0,1,1,3.39-3A3.23,3.23,0,0,1,927.49,251.67Z" transform="translate(-294 -106.48)"/><path class="cls-136" d="M947.42,341.53A15.58,15.58,0,1,1,963.76,327,15.5,15.5,0,0,1,947.42,341.53Z" transform="translate(-294 -106.48)"/><path class="cls-137" d="M964.56,347.37a15.58,15.58,0,1,1,16.33-14.57A15.53,15.53,0,0,1,964.56,347.37Z" transform="translate(-294 -106.48)"/><path class="cls-138" d="M962.39,326.58A15.58,15.58,0,1,1,978.73,312,15.52,15.52,0,0,1,962.39,326.58Z" transform="translate(-294 -106.48)"/><path class="cls-139" d="M925.84,301.79a9.83,9.83,0,1,1,10.32-9.2A9.79,9.79,0,0,1,925.84,301.79Z" transform="translate(-294 -106.48)"/><path class="cls-140" d="M913.37,282.27a15.58,15.58,0,1,1,16.34-14.57A15.52,15.52,0,0,1,913.37,282.27Zm6,53a15.58,15.58,0,1,1,16.34-14.57A15.52,15.52,0,0,1,919.37,335.27Z" transform="translate(-294 -106.48)"/><path class="cls-141" d="M934.31,246.49a8.62,8.62,0,1,1,9-8.06A8.59,8.59,0,0,1,934.31,246.49Z" transform="translate(-294 -106.48)"/><path class="cls-142" d="M922.88,256.89a3.24,3.24,0,1,1,3.39-3A3.22,3.22,0,0,1,922.88,256.89Z" transform="translate(-294 -106.48)"/><path class="cls-143" d="M911,304.2a3.23,3.23,0,1,1,3.4-3,3.29,3.29,0,0,1-1.08,2.21A3.23,3.23,0,0,1,911,304.2Z" transform="translate(-294 -106.48)"/><path class="cls-92" d="M922.56,414.14l37.62-49.37-36-45.89,30.21-60.57" transform="translate(-294 -106.48)"/><path class="cls-33" d="M918.81,395.79l-8.53,11.5,5.63,13.12,8.56-11.56Z" transform="translate(-294 -106.48)"/><path class="cls-34" d="M938.76,410.49l-14.29-1.64-8.56,11.56,14.35,1.77Z" transform="translate(-294 -106.48)"/><path class="cls-38" d="M933,397.3l-14.23-1.51,5.66,13.06,14.29,1.64Z" transform="translate(-294 -106.48)"/><path class="cls-33" d="M946.14,367.18l9.16,11,14.08-2.36-9.2-11.06Z" transform="translate(-294 -106.48)"/><path class="cls-34" d="M965.17,351.28l-5,13.49,9.2,11.06,5.13-13.52Z" transform="translate(-294 -106.48)"/><path class="cls-38" d="M951,353.71l-4.85,13.47,14-2.41,5-13.49Z" transform="translate(-294 -106.48)"/><path class="cls-144" d="M929.67,305.75l-14.2,1.81-5.58,13.14,14.27-1.82Z" transform="translate(-294 -106.48)"/><path class="cls-145" d="M932.87,330.33l-8.71-11.45-14.27,1.82,8.65,11.58Z" transform="translate(-294 -106.48)"/><path class="cls-146" d="M938.43,317.07l-8.76-11.32-5.51,13.13,8.71,11.45Z" transform="translate(-294 -106.48)"/><path class="cls-39" d="M959.88,245.18,945.68,247l-5.58,13.14,14.27-1.82Z" transform="translate(-294 -106.48)"/><path class="cls-28" d="M963.08,269.76l-8.71-11.45-14.27,1.82,8.65,11.59Z" transform="translate(-294 -106.48)"/><path class="cls-29" d="M968.64,256.5l-8.76-11.32-5.51,13.13,8.71,11.45Z" transform="translate(-294 -106.48)"/></svg>